<svg width="1512" height="1168" viewBox="0 0 1512 1168" fill="none" xmlns="http://www.w3.org/2000/svg">
<g opacity="0.31">
<line y1="673.843" x2="1511.58" y2="673.843" stroke="white" stroke-width="1.2607"/>
<line y1="996.581" x2="1511.58" y2="996.581" stroke="white" stroke-width="1.2607"/>
<line y1="351.105" x2="1511.58" y2="351.105" stroke="white" stroke-width="1.2607"/>
<line y1="28.3645" x2="1511.58" y2="28.3645" stroke="white" stroke-width="1.2607"/>
<line y1="1157.95" x2="1511.58" y2="1157.95" stroke="white" stroke-width="1.2607"/>
<line y1="512.473" x2="1511.58" y2="512.473" stroke="white" stroke-width="1.2607"/>
<line y1="835.211" x2="1511.58" y2="835.211" stroke="white" stroke-width="1.2607"/>
<line y1="189.735" x2="1511.58" y2="189.735" stroke="white" stroke-width="1.2607"/>
<line y1="593.158" x2="1511.58" y2="593.158" stroke="white" stroke-width="1.2607"/>
<line y1="915.896" x2="1511.58" y2="915.896" stroke="white" stroke-width="1.2607"/>
<line y1="270.42" x2="1511.58" y2="270.42" stroke="white" stroke-width="1.2607"/>
<line y1="1077.27" x2="1511.58" y2="1077.27" stroke="white" stroke-width="1.2607"/>
<line y1="431.788" x2="1511.58" y2="431.788" stroke="white" stroke-width="1.2607"/>
<line y1="754.528" x2="1511.58" y2="754.528" stroke="white" stroke-width="1.2607"/>
<line y1="109.05" x2="1511.58" y2="109.05" stroke="white" stroke-width="1.2607"/>
<line x1="47.2749" y1="0.000244168" x2="47.2748" y2="1167.41" stroke="white" stroke-width="1.2607"/>
<line x1="692.756" y1="0.000244168" x2="692.756" y2="1167.41" stroke="white" stroke-width="1.2607"/>
<line x1="370.015" y1="2.75534e-08" x2="370.015" y2="1167.41" stroke="white" stroke-width="1.2607"/>
<line x1="1015.49" y1="0.000244168" x2="1015.49" y2="1167.41" stroke="white" stroke-width="1.2607"/>
<line x1="1338.23" y1="0.000244168" x2="1338.23" y2="1167.41" stroke="white" stroke-width="1.2607"/>
<line x1="208.646" y1="0.000244168" x2="208.646" y2="1167.41" stroke="white" stroke-width="1.2607"/>
<line x1="854.122" y1="0.000244168" x2="854.122" y2="1167.41" stroke="white" stroke-width="1.2607"/>
<line x1="531.386" y1="0.000244168" x2="531.386" y2="1167.41" stroke="white" stroke-width="1.2607"/>
<line x1="1176.86" y1="2.75534e-08" x2="1176.86" y2="1167.41" stroke="white" stroke-width="1.2607"/>
<line x1="1499.6" y1="0.000244168" x2="1499.6" y2="1167.41" stroke="white" stroke-width="1.2607"/>
<line x1="127.962" y1="0.000244168" x2="127.962" y2="1167.41" stroke="white" stroke-width="1.2607"/>
<line x1="773.439" y1="2.75534e-08" x2="773.439" y2="1167.41" stroke="white" stroke-width="1.2607"/>
<line x1="450.699" y1="0.000244168" x2="450.699" y2="1167.41" stroke="white" stroke-width="1.2607"/>
<line x1="1096.18" y1="0.000244168" x2="1096.18" y2="1167.41" stroke="white" stroke-width="1.2607"/>
<line x1="1418.92" y1="0.000244168" x2="1418.92" y2="1167.41" stroke="white" stroke-width="1.2607"/>
<line x1="289.332" y1="0.000244168" x2="289.332" y2="1167.41" stroke="white" stroke-width="1.2607"/>
<line x1="934.809" y1="0.000244168" x2="934.809" y2="1167.41" stroke="white" stroke-width="1.2607"/>
<line x1="612.069" y1="0.000244168" x2="612.069" y2="1167.41" stroke="white" stroke-width="1.2607"/>
<line x1="1257.55" y1="0.000244168" x2="1257.55" y2="1167.41" stroke="white" stroke-width="1.2607"/>
</g>
</svg>
