<svg width="605" height="206" viewBox="0 0 605 206" fill="none" xmlns="http://www.w3.org/2000/svg">
<mask id="path-1-outside-1_4912_7" maskUnits="userSpaceOnUse" x="2" y="17" width="413" height="171" fill="black">
<rect fill="white" x="2" y="17" width="413" height="171"/>
<path d="M74 89.6V76.8H99.6V89.6H74ZM22.8 102.4V89.6H35.6V102.4H22.8ZM61.2 115.2V89.6H74V115.2H61.2ZM99.6 115.2V89.6H112.4V115.2H99.6ZM10 140.8V102.4H22.8V140.8H10ZM74 140.8V115.2H86.8V140.8H74ZM112.4 128V115.2H125.2V128H112.4ZM22.8 153.6V140.8H74V153.6H22.8ZM22.8 179.2V166.4H61.2V179.2H22.8ZM112.375 128V115.2H150.775V128H112.375ZM163.6 38.4V25.6H176.4V38.4H163.6ZM176.4 115.2H163.6V64H176.4V115.2ZM163.6 128H138V115.2H163.6V128ZM214.85 140.8V76.8H227.65V140.8H214.85ZM202.05 153.6V140.8H214.85V153.6H202.05ZM189.25 166.4V153.6H202.05V166.4H189.25ZM253.3 38.4V25.6H266.1V38.4H253.3ZM253.3 76.8V64H278.9V76.8H253.3ZM278.9 89.6V76.8H291.7V89.6H278.9ZM291.7 115.2V89.6H304.5V115.2H291.7ZM240.5 128V115.2H291.7V128H240.5ZM304.5 128V115.2H317.3V128H304.5ZM330.1 76.8V64H368.5V76.8H330.1ZM330.1 102.4H317.3V76.8H330.1V102.4ZM368.5 89.6V76.8H381.3V89.6H368.5ZM304.5 128V115.2H330.1V102.4H342.9V115.2H368.5V128H304.5ZM406.925 128H394.125V25.6H406.925V128Z"/>
</mask>
<path d="M74 89.6V76.8H99.6V89.6H74ZM22.8 102.4V89.6H35.6V102.4H22.8ZM61.2 115.2V89.6H74V115.2H61.2ZM99.6 115.2V89.6H112.4V115.2H99.6ZM10 140.8V102.4H22.8V140.8H10ZM74 140.8V115.2H86.8V140.8H74ZM112.4 128V115.2H125.2V128H112.4ZM22.8 153.6V140.8H74V153.6H22.8ZM22.8 179.2V166.4H61.2V179.2H22.8ZM112.375 128V115.2H150.775V128H112.375ZM163.6 38.4V25.6H176.4V38.4H163.6ZM176.4 115.2H163.6V64H176.4V115.2ZM163.6 128H138V115.2H163.6V128ZM214.85 140.8V76.8H227.65V140.8H214.85ZM202.05 153.6V140.8H214.85V153.6H202.05ZM189.25 166.4V153.6H202.05V166.4H189.25ZM253.3 38.4V25.6H266.1V38.4H253.3ZM253.3 76.8V64H278.9V76.8H253.3ZM278.9 89.6V76.8H291.7V89.6H278.9ZM291.7 115.2V89.6H304.5V115.2H291.7ZM240.5 128V115.2H291.7V128H240.5ZM304.5 128V115.2H317.3V128H304.5ZM330.1 76.8V64H368.5V76.8H330.1ZM330.1 102.4H317.3V76.8H330.1V102.4ZM368.5 89.6V76.8H381.3V89.6H368.5ZM304.5 128V115.2H330.1V102.4H342.9V115.2H368.5V128H304.5ZM406.925 128H394.125V25.6H406.925V128Z" fill="#F4DB32"/>
<path d="M74 89.6H66V97.6H74V89.6ZM74 76.8V68.8H66V76.8H74ZM99.6 76.8H107.6V68.8H99.6V76.8ZM99.6 89.6V97.6H107.6V89.6H99.6ZM22.8 102.4H14.8V110.4H22.8V102.4ZM22.8 89.6V81.6H14.8V89.6H22.8ZM35.6 89.6H43.6V81.6H35.6V89.6ZM35.6 102.4V110.4H43.6V102.4H35.6ZM61.2 115.2H53.2V123.2H61.2V115.2ZM61.2 89.6V81.6H53.2V89.6H61.2ZM74 89.6H82V81.6H74V89.6ZM74 115.2V123.2H82V115.2H74ZM99.6 115.2H91.6V123.2H99.6V115.2ZM99.6 89.6V81.6H91.6V89.6H99.6ZM112.4 89.6H120.4V81.6H112.4V89.6ZM112.4 115.2V123.2H120.4V115.2H112.4ZM10 140.8H2V148.8H10V140.8ZM10 102.4V94.4H2V102.4H10ZM22.8 102.4H30.8V94.4H22.8V102.4ZM22.8 140.8V148.8H30.8V140.8H22.8ZM74 140.8H66V148.8H74V140.8ZM74 115.2V107.2H66V115.2H74ZM86.8 115.2H94.8V107.2H86.8V115.2ZM86.8 140.8V148.8H94.8V140.8H86.8ZM112.4 128H104.4V136H112.4V128ZM112.4 115.2V107.2H104.4V115.2H112.4ZM125.2 115.2H133.2V107.2H125.2V115.2ZM125.2 128V136H133.2V128H125.2ZM22.8 153.6H14.8V161.6H22.8V153.6ZM22.8 140.8V132.8H14.8V140.8H22.8ZM74 140.8H82V132.8H74V140.8ZM74 153.6V161.6H82V153.6H74ZM22.8 179.2H14.8V187.2H22.8V179.2ZM22.8 166.4V158.4H14.8V166.4H22.8ZM61.2 166.4H69.2V158.4H61.2V166.4ZM61.2 179.2V187.2H69.2V179.2H61.2ZM74 89.6H82V76.8H74H66V89.6H74ZM74 76.8V84.8H99.6V76.8V68.8H74V76.8ZM99.6 76.8H91.6V89.6H99.6H107.6V76.8H99.6ZM99.6 89.6V81.6H74V89.6V97.6H99.6V89.6ZM22.8 102.4H30.8V89.6H22.8H14.8V102.4H22.8ZM22.8 89.6V97.6H35.6V89.6V81.6H22.8V89.6ZM35.6 89.6H27.6V102.4H35.6H43.6V89.6H35.6ZM35.6 102.4V94.4H22.8V102.4V110.4H35.6V102.4ZM61.2 115.2H69.2V89.6H61.2H53.2V115.2H61.2ZM61.2 89.6V97.6H74V89.6V81.6H61.2V89.6ZM74 89.6H66V115.2H74H82V89.6H74ZM74 115.2V107.2H61.2V115.2V123.2H74V115.2ZM99.6 115.2H107.6V89.6H99.6H91.6V115.2H99.6ZM99.6 89.6V97.6H112.4V89.6V81.6H99.6V89.6ZM112.4 89.6H104.4V115.2H112.4H120.4V89.6H112.4ZM112.4 115.2V107.2H99.6V115.2V123.2H112.4V115.2ZM10 140.8H18V102.4H10H2V140.8H10ZM10 102.4V110.4H22.8V102.4V94.4H10V102.4ZM22.8 102.4H14.8V140.8H22.8H30.8V102.4H22.8ZM22.8 140.8V132.8H10V140.8V148.8H22.8V140.8ZM74 140.8H82V115.2H74H66V140.8H74ZM74 115.2V123.2H86.8V115.2V107.2H74V115.2ZM86.8 115.2H78.8V140.8H86.8H94.8V115.2H86.8ZM86.8 140.8V132.8H74V140.8V148.8H86.8V140.8ZM112.4 128H120.4V115.2H112.4H104.4V128H112.4ZM112.4 115.2V123.2H125.2V115.2V107.2H112.4V115.2ZM125.2 115.2H117.2V128H125.2H133.2V115.2H125.2ZM125.2 128V120H112.4V128V136H125.2V128ZM22.8 153.6H30.8V140.8H22.8H14.8V153.6H22.8ZM22.8 140.8V148.8H74V140.8V132.8H22.8V140.8ZM74 140.8H66V153.6H74H82V140.8H74ZM74 153.6V145.6H22.8V153.6V161.6H74V153.6ZM22.8 179.2H30.8V166.4H22.8H14.8V179.2H22.8ZM22.8 166.4V174.4H61.2V166.4V158.4H22.8V166.4ZM61.2 166.4H53.2V179.2H61.2H69.2V166.4H61.2ZM61.2 179.2V171.2H22.8V179.2V187.2H61.2V179.2ZM112.375 128H104.375V136H112.375V128ZM112.375 115.2V107.2H104.375V115.2H112.375ZM150.775 115.2H158.775V107.2H150.775V115.2ZM150.775 128V136H158.775V128H150.775ZM112.375 128H120.375V115.2H112.375H104.375V128H112.375ZM112.375 115.2V123.2H150.775V115.2V107.2H112.375V115.2ZM150.775 115.2H142.775V128H150.775H158.775V115.2H150.775ZM150.775 128V120H112.375V128V136H150.775V128ZM163.6 38.4H155.6V46.4H163.6V38.4ZM163.6 25.6V17.6H155.6V25.6H163.6ZM176.4 25.6H184.4V17.6H176.4V25.6ZM176.4 38.4V46.4H184.4V38.4H176.4ZM176.4 115.2V123.2H184.4V115.2H176.4ZM163.6 115.2H155.6V123.2H163.6V115.2ZM163.6 64V56H155.6V64H163.6ZM176.4 64H184.4V56H176.4V64ZM163.6 128V136H171.6V128H163.6ZM138 128H130V136H138V128ZM138 115.2V107.2H130V115.2H138ZM163.6 115.2H171.6V107.2H163.6V115.2ZM163.6 38.4H171.6V25.6H163.6H155.6V38.4H163.6ZM163.6 25.6V33.6H176.4V25.6V17.6H163.6V25.6ZM176.4 25.6H168.4V38.4H176.4H184.4V25.6H176.4ZM176.4 38.4V30.4H163.6V38.4V46.4H176.4V38.4ZM176.4 115.2V107.2H163.6V115.2V123.2H176.4V115.2ZM163.6 115.2H171.6V64H163.6H155.6V115.2H163.6ZM163.6 64V72H176.4V64V56H163.6V64ZM176.4 64H168.4V115.2H176.4H184.4V64H176.4ZM163.6 128V120H138V128V136H163.6V128ZM138 128H146V115.2H138H130V128H138ZM138 115.2V123.2H163.6V115.2V107.2H138V115.2ZM163.6 115.2H155.6V128H163.6H171.6V115.2H163.6ZM214.85 140.8H206.85V148.8H214.85V140.8ZM214.85 76.8V68.8H206.85V76.8H214.85ZM227.65 76.8H235.65V68.8H227.65V76.8ZM227.65 140.8V148.8H235.65V140.8H227.65ZM202.05 153.6H194.05V161.6H202.05V153.6ZM202.05 140.8V132.8H194.05V140.8H202.05ZM214.85 140.8H222.85V132.8H214.85V140.8ZM214.85 153.6V161.6H222.85V153.6H214.85ZM189.25 166.4H181.25V174.4H189.25V166.4ZM189.25 153.6V145.6H181.25V153.6H189.25ZM202.05 153.6H210.05V145.6H202.05V153.6ZM202.05 166.4V174.4H210.05V166.4H202.05ZM214.85 140.8H222.85V76.8H214.85H206.85V140.8H214.85ZM214.85 76.8V84.8H227.65V76.8V68.8H214.85V76.8ZM227.65 76.8H219.65V140.8H227.65H235.65V76.8H227.65ZM227.65 140.8V132.8H214.85V140.8V148.8H227.65V140.8ZM202.05 153.6H210.05V140.8H202.05H194.05V153.6H202.05ZM202.05 140.8V148.8H214.85V140.8V132.8H202.05V140.8ZM214.85 140.8H206.85V153.6H214.85H222.85V140.8H214.85ZM214.85 153.6V145.6H202.05V153.6V161.6H214.85V153.6ZM189.25 166.4H197.25V153.6H189.25H181.25V166.4H189.25ZM189.25 153.6V161.6H202.05V153.6V145.6H189.25V153.6ZM202.05 153.6H194.05V166.4H202.05H210.05V153.6H202.05ZM202.05 166.4V158.4H189.25V166.4V174.4H202.05V166.4ZM253.3 38.4H245.3V46.4H253.3V38.4ZM253.3 25.6V17.6H245.3V25.6H253.3ZM266.1 25.6H274.1V17.6H266.1V25.6ZM266.1 38.4V46.4H274.1V38.4H266.1ZM253.3 76.8H245.3V84.8H253.3V76.8ZM253.3 64V56H245.3V64H253.3ZM278.9 64H286.9V56H278.9V64ZM278.9 76.8V84.8H286.9V76.8H278.9ZM278.9 89.6H270.9V97.6H278.9V89.6ZM278.9 76.8V68.8H270.9V76.8H278.9ZM291.7 76.8H299.7V68.8H291.7V76.8ZM291.7 89.6V97.6H299.7V89.6H291.7ZM291.7 115.2H283.7V123.2H291.7V115.2ZM291.7 89.6V81.6H283.7V89.6H291.7ZM304.5 89.6H312.5V81.6H304.5V89.6ZM304.5 115.2V123.2H312.5V115.2H304.5ZM240.5 128H232.5V136H240.5V128ZM240.5 115.2V107.2H232.5V115.2H240.5ZM291.7 115.2H299.7V107.2H291.7V115.2ZM291.7 128V136H299.7V128H291.7ZM304.5 128H296.5V136H304.5V128ZM304.5 115.2V107.2H296.5V115.2H304.5ZM317.3 115.2H325.3V107.2H317.3V115.2ZM317.3 128V136H325.3V128H317.3ZM253.3 38.4H261.3V25.6H253.3H245.3V38.4H253.3ZM253.3 25.6V33.6H266.1V25.6V17.6H253.3V25.6ZM266.1 25.6H258.1V38.4H266.1H274.1V25.6H266.1ZM266.1 38.4V30.4H253.3V38.4V46.4H266.1V38.4ZM253.3 76.8H261.3V64H253.3H245.3V76.8H253.3ZM253.3 64V72H278.9V64V56H253.3V64ZM278.9 64H270.9V76.8H278.9H286.9V64H278.9ZM278.9 76.8V68.8H253.3V76.8V84.8H278.9V76.8ZM278.9 89.6H286.9V76.8H278.9H270.9V89.6H278.9ZM278.9 76.8V84.8H291.7V76.8V68.8H278.9V76.8ZM291.7 76.8H283.7V89.6H291.7H299.7V76.8H291.7ZM291.7 89.6V81.6H278.9V89.6V97.6H291.7V89.6ZM291.7 115.2H299.7V89.6H291.7H283.7V115.2H291.7ZM291.7 89.6V97.6H304.5V89.6V81.6H291.7V89.6ZM304.5 89.6H296.5V115.2H304.5H312.5V89.6H304.5ZM304.5 115.2V107.2H291.7V115.2V123.2H304.5V115.2ZM240.5 128H248.5V115.2H240.5H232.5V128H240.5ZM240.5 115.2V123.2H291.7V115.2V107.2H240.5V115.2ZM291.7 115.2H283.7V128H291.7H299.7V115.2H291.7ZM291.7 128V120H240.5V128V136H291.7V128ZM304.5 128H312.5V115.2H304.5H296.5V128H304.5ZM304.5 115.2V123.2H317.3V115.2V107.2H304.5V115.2ZM317.3 115.2H309.3V128H317.3H325.3V115.2H317.3ZM317.3 128V120H304.5V128V136H317.3V128ZM330.1 76.8H322.1V84.8H330.1V76.8ZM330.1 64V56H322.1V64H330.1ZM368.5 64H376.5V56H368.5V64ZM368.5 76.8V84.8H376.5V76.8H368.5ZM330.1 102.4V110.4H338.1V102.4H330.1ZM317.3 102.4H309.3V110.4H317.3V102.4ZM317.3 76.8V68.8H309.3V76.8H317.3ZM330.1 76.8H338.1V68.8H330.1V76.8ZM368.5 89.6H360.5V97.6H368.5V89.6ZM368.5 76.8V68.8H360.5V76.8H368.5ZM381.3 76.8H389.3V68.8H381.3V76.8ZM381.3 89.6V97.6H389.3V89.6H381.3ZM304.5 128H296.5V136H304.5V128ZM304.5 115.2V107.2H296.5V115.2H304.5ZM330.1 115.2V123.2H338.1V115.2H330.1ZM330.1 102.4V94.4H322.1V102.4H330.1ZM342.9 102.4H350.9V94.4H342.9V102.4ZM342.9 115.2H334.9V123.2H342.9V115.2ZM368.5 115.2H376.5V107.2H368.5V115.2ZM368.5 128V136H376.5V128H368.5ZM330.1 76.8H338.1V64H330.1H322.1V76.8H330.1ZM330.1 64V72H368.5V64V56H330.1V64ZM368.5 64H360.5V76.8H368.5H376.5V64H368.5ZM368.5 76.8V68.8H330.1V76.8V84.8H368.5V76.8ZM330.1 102.4V94.4H317.3V102.4V110.4H330.1V102.4ZM317.3 102.4H325.3V76.8H317.3H309.3V102.4H317.3ZM317.3 76.8V84.8H330.1V76.8V68.8H317.3V76.8ZM330.1 76.8H322.1V102.4H330.1H338.1V76.8H330.1ZM368.5 89.6H376.5V76.8H368.5H360.5V89.6H368.5ZM368.5 76.8V84.8H381.3V76.8V68.8H368.5V76.8ZM381.3 76.8H373.3V89.6H381.3H389.3V76.8H381.3ZM381.3 89.6V81.6H368.5V89.6V97.6H381.3V89.6ZM304.5 128H312.5V115.2H304.5H296.5V128H304.5ZM304.5 115.2V123.2H330.1V115.2V107.2H304.5V115.2ZM330.1 115.2H338.1V102.4H330.1H322.1V115.2H330.1ZM330.1 102.4V110.4H342.9V102.4V94.4H330.1V102.4ZM342.9 102.4H334.9V115.2H342.9H350.9V102.4H342.9ZM342.9 115.2V123.2H368.5V115.2V107.2H342.9V115.2ZM368.5 115.2H360.5V128H368.5H376.5V115.2H368.5ZM368.5 128V120H304.5V128V136H368.5V128ZM406.925 128V136H414.925V128H406.925ZM394.125 128H386.125V136H394.125V128ZM394.125 25.6V17.6H386.125V25.6H394.125ZM406.925 25.6H414.925V17.6H406.925V25.6ZM406.925 128V120H394.125V128V136H406.925V128ZM394.125 128H402.125V25.6H394.125H386.125V128H394.125ZM394.125 25.6V33.6H406.925V25.6V17.6H394.125V25.6ZM406.925 25.6H398.925V128H406.925H414.925V25.6H406.925Z" fill="black" mask="url(#path-1-outside-1_4912_7)"/>
<mask id="path-3-outside-2_4912_7" maskUnits="userSpaceOnUse" x="8" y="23" width="401" height="159" fill="black">
<rect fill="white" x="8" y="23" width="401" height="159"/>
<path d="M74 89.6V76.8H99.6V89.6H74ZM22.8 102.4V89.6H35.6V102.4H22.8ZM61.2 115.2V89.6H74V115.2H61.2ZM99.6 115.2V89.6H112.4V115.2H99.6ZM10 140.8V102.4H22.8V140.8H10ZM74 140.8V115.2H86.8V140.8H74ZM112.4 128V115.2H125.2V128H112.4ZM22.8 153.6V140.8H74V153.6H22.8ZM22.8 179.2V166.4H61.2V179.2H22.8ZM112.375 128V115.2H150.775V128H112.375ZM163.6 38.4V25.6H176.4V38.4H163.6ZM176.4 115.2H163.6V64H176.4V115.2ZM163.6 128H138V115.2H163.6V128ZM214.85 140.8V76.8H227.65V140.8H214.85ZM202.05 153.6V140.8H214.85V153.6H202.05ZM189.25 166.4V153.6H202.05V166.4H189.25ZM253.3 38.4V25.6H266.1V38.4H253.3ZM253.3 76.8V64H278.9V76.8H253.3ZM278.9 89.6V76.8H291.7V89.6H278.9ZM291.7 115.2V89.6H304.5V115.2H291.7ZM240.5 128V115.2H291.7V128H240.5ZM304.5 128V115.2H317.3V128H304.5ZM330.1 76.8V64H368.5V76.8H330.1ZM330.1 102.4H317.3V76.8H330.1V102.4ZM368.5 89.6V76.8H381.3V89.6H368.5ZM304.5 128V115.2H330.1V102.4H342.9V115.2H368.5V128H304.5ZM406.925 128H394.125V25.6H406.925V128Z"/>
</mask>
<path d="M74 89.6V76.8H99.6V89.6H74ZM22.8 102.4V89.6H35.6V102.4H22.8ZM61.2 115.2V89.6H74V115.2H61.2ZM99.6 115.2V89.6H112.4V115.2H99.6ZM10 140.8V102.4H22.8V140.8H10ZM74 140.8V115.2H86.8V140.8H74ZM112.4 128V115.2H125.2V128H112.4ZM22.8 153.6V140.8H74V153.6H22.8ZM22.8 179.2V166.4H61.2V179.2H22.8ZM112.375 128V115.2H150.775V128H112.375ZM163.6 38.4V25.6H176.4V38.4H163.6ZM176.4 115.2H163.6V64H176.4V115.2ZM163.6 128H138V115.2H163.6V128ZM214.85 140.8V76.8H227.65V140.8H214.85ZM202.05 153.6V140.8H214.85V153.6H202.05ZM189.25 166.4V153.6H202.05V166.4H189.25ZM253.3 38.4V25.6H266.1V38.4H253.3ZM253.3 76.8V64H278.9V76.8H253.3ZM278.9 89.6V76.8H291.7V89.6H278.9ZM291.7 115.2V89.6H304.5V115.2H291.7ZM240.5 128V115.2H291.7V128H240.5ZM304.5 128V115.2H317.3V128H304.5ZM330.1 76.8V64H368.5V76.8H330.1ZM330.1 102.4H317.3V76.8H330.1V102.4ZM368.5 89.6V76.8H381.3V89.6H368.5ZM304.5 128V115.2H330.1V102.4H342.9V115.2H368.5V128H304.5ZM406.925 128H394.125V25.6H406.925V128Z" fill="#F4DB32"/>
<path d="M74 89.6H72V91.6H74V89.6ZM74 76.8V74.8H72V76.8H74ZM99.6 76.8H101.6V74.8H99.6V76.8ZM99.6 89.6V91.6H101.6V89.6H99.6ZM22.8 102.4H20.8V104.4H22.8V102.4ZM22.8 89.6V87.6H20.8V89.6H22.8ZM35.6 89.6H37.6V87.6H35.6V89.6ZM35.6 102.4V104.4H37.6V102.4H35.6ZM61.2 115.2H59.2V117.2H61.2V115.2ZM61.2 89.6V87.6H59.2V89.6H61.2ZM74 89.6H76V87.6H74V89.6ZM74 115.2V117.2H76V115.2H74ZM99.6 115.2H97.6V117.2H99.6V115.2ZM99.6 89.6V87.6H97.6V89.6H99.6ZM112.4 89.6H114.4V87.6H112.4V89.6ZM112.4 115.2V117.2H114.4V115.2H112.4ZM10 140.8H8V142.8H10V140.8ZM10 102.4V100.4H8V102.4H10ZM22.8 102.4H24.8V100.4H22.8V102.4ZM22.8 140.8V142.8H24.8V140.8H22.8ZM74 140.8H72V142.8H74V140.8ZM74 115.2V113.2H72V115.2H74ZM86.8 115.2H88.8V113.2H86.8V115.2ZM86.8 140.8V142.8H88.8V140.8H86.8ZM112.4 128H110.4V130H112.4V128ZM112.4 115.2V113.2H110.4V115.2H112.4ZM125.2 115.2H127.2V113.2H125.2V115.2ZM125.2 128V130H127.2V128H125.2ZM22.8 153.6H20.8V155.6H22.8V153.6ZM22.8 140.8V138.8H20.8V140.8H22.8ZM74 140.8H76V138.8H74V140.8ZM74 153.6V155.6H76V153.6H74ZM22.8 179.2H20.8V181.2H22.8V179.2ZM22.8 166.4V164.4H20.8V166.4H22.8ZM61.2 166.4H63.2V164.4H61.2V166.4ZM61.2 179.2V181.2H63.2V179.2H61.2ZM74 89.6H76V76.8H74H72V89.6H74ZM74 76.8V78.8H99.6V76.8V74.8H74V76.8ZM99.6 76.8H97.6V89.6H99.6H101.6V76.8H99.6ZM99.6 89.6V87.6H74V89.6V91.6H99.6V89.6ZM22.8 102.4H24.8V89.6H22.8H20.8V102.4H22.8ZM22.8 89.6V91.6H35.6V89.6V87.6H22.8V89.6ZM35.6 89.6H33.6V102.4H35.6H37.6V89.6H35.6ZM35.6 102.4V100.4H22.8V102.4V104.4H35.6V102.4ZM61.2 115.2H63.2V89.6H61.2H59.2V115.2H61.2ZM61.2 89.6V91.6H74V89.6V87.6H61.2V89.6ZM74 89.6H72V115.2H74H76V89.6H74ZM74 115.2V113.2H61.2V115.2V117.2H74V115.2ZM99.6 115.2H101.6V89.6H99.6H97.6V115.2H99.6ZM99.6 89.6V91.6H112.4V89.6V87.6H99.6V89.6ZM112.4 89.6H110.4V115.2H112.4H114.4V89.6H112.4ZM112.4 115.2V113.2H99.6V115.2V117.2H112.4V115.2ZM10 140.8H12V102.4H10H8V140.8H10ZM10 102.4V104.4H22.8V102.4V100.4H10V102.4ZM22.8 102.4H20.8V140.8H22.8H24.8V102.4H22.8ZM22.8 140.8V138.8H10V140.8V142.8H22.8V140.8ZM74 140.8H76V115.2H74H72V140.8H74ZM74 115.2V117.2H86.8V115.2V113.2H74V115.2ZM86.8 115.2H84.8V140.8H86.8H88.8V115.2H86.8ZM86.8 140.8V138.8H74V140.8V142.8H86.8V140.8ZM112.4 128H114.4V115.2H112.4H110.4V128H112.4ZM112.4 115.2V117.2H125.2V115.2V113.2H112.4V115.2ZM125.2 115.2H123.2V128H125.2H127.2V115.2H125.2ZM125.2 128V126H112.4V128V130H125.2V128ZM22.8 153.6H24.8V140.8H22.8H20.8V153.6H22.8ZM22.8 140.8V142.8H74V140.8V138.8H22.8V140.8ZM74 140.8H72V153.6H74H76V140.8H74ZM74 153.6V151.6H22.8V153.6V155.6H74V153.6ZM22.8 179.2H24.8V166.4H22.8H20.8V179.2H22.8ZM22.8 166.4V168.4H61.2V166.4V164.4H22.8V166.4ZM61.2 166.4H59.2V179.2H61.2H63.2V166.4H61.2ZM61.2 179.2V177.2H22.8V179.2V181.2H61.2V179.2ZM112.375 128H110.375V130H112.375V128ZM112.375 115.2V113.2H110.375V115.2H112.375ZM150.775 115.2H152.775V113.2H150.775V115.2ZM150.775 128V130H152.775V128H150.775ZM112.375 128H114.375V115.2H112.375H110.375V128H112.375ZM112.375 115.2V117.2H150.775V115.2V113.2H112.375V115.2ZM150.775 115.2H148.775V128H150.775H152.775V115.2H150.775ZM150.775 128V126H112.375V128V130H150.775V128ZM163.6 38.4H161.6V40.4H163.6V38.4ZM163.6 25.6V23.6H161.6V25.6H163.6ZM176.4 25.6H178.4V23.6H176.4V25.6ZM176.4 38.4V40.4H178.4V38.4H176.4ZM176.4 115.2V117.2H178.4V115.2H176.4ZM163.6 115.2H161.6V117.2H163.6V115.2ZM163.6 64V62H161.6V64H163.6ZM176.4 64H178.4V62H176.4V64ZM163.6 128V130H165.6V128H163.6ZM138 128H136V130H138V128ZM138 115.2V113.2H136V115.2H138ZM163.6 115.2H165.6V113.2H163.6V115.2ZM163.6 38.4H165.6V25.6H163.6H161.6V38.4H163.6ZM163.6 25.6V27.6H176.4V25.6V23.6H163.6V25.6ZM176.4 25.6H174.4V38.4H176.4H178.4V25.6H176.4ZM176.4 38.4V36.4H163.6V38.4V40.4H176.4V38.4ZM176.4 115.2V113.2H163.6V115.2V117.2H176.4V115.2ZM163.6 115.2H165.6V64H163.6H161.6V115.2H163.6ZM163.6 64V66H176.4V64V62H163.6V64ZM176.4 64H174.4V115.2H176.4H178.4V64H176.4ZM163.6 128V126H138V128V130H163.6V128ZM138 128H140V115.2H138H136V128H138ZM138 115.2V117.2H163.6V115.2V113.2H138V115.2ZM163.6 115.2H161.6V128H163.6H165.6V115.2H163.6ZM214.85 140.8H212.85V142.8H214.85V140.8ZM214.85 76.8V74.8H212.85V76.8H214.85ZM227.65 76.8H229.65V74.8H227.65V76.8ZM227.65 140.8V142.8H229.65V140.8H227.65ZM202.05 153.6H200.05V155.6H202.05V153.6ZM202.05 140.8V138.8H200.05V140.8H202.05ZM214.85 140.8H216.85V138.8H214.85V140.8ZM214.85 153.6V155.6H216.85V153.6H214.85ZM189.25 166.4H187.25V168.4H189.25V166.4ZM189.25 153.6V151.6H187.25V153.6H189.25ZM202.05 153.6H204.05V151.6H202.05V153.6ZM202.05 166.4V168.4H204.05V166.4H202.05ZM214.85 140.8H216.85V76.8H214.85H212.85V140.8H214.85ZM214.85 76.8V78.8H227.65V76.8V74.8H214.85V76.8ZM227.65 76.8H225.65V140.8H227.65H229.65V76.8H227.65ZM227.65 140.8V138.8H214.85V140.8V142.8H227.65V140.8ZM202.05 153.6H204.05V140.8H202.05H200.05V153.6H202.05ZM202.05 140.8V142.8H214.85V140.8V138.8H202.05V140.8ZM214.85 140.8H212.85V153.6H214.85H216.85V140.8H214.85ZM214.85 153.6V151.6H202.05V153.6V155.6H214.85V153.6ZM189.25 166.4H191.25V153.6H189.25H187.25V166.4H189.25ZM189.25 153.6V155.6H202.05V153.6V151.6H189.25V153.6ZM202.05 153.6H200.05V166.4H202.05H204.05V153.6H202.05ZM202.05 166.4V164.4H189.25V166.4V168.4H202.05V166.4ZM253.3 38.4H251.3V40.4H253.3V38.4ZM253.3 25.6V23.6H251.3V25.6H253.3ZM266.1 25.6H268.1V23.6H266.1V25.6ZM266.1 38.4V40.4H268.1V38.4H266.1ZM253.3 76.8H251.3V78.8H253.3V76.8ZM253.3 64V62H251.3V64H253.3ZM278.9 64H280.9V62H278.9V64ZM278.9 76.8V78.8H280.9V76.8H278.9ZM278.9 89.6H276.9V91.6H278.9V89.6ZM278.9 76.8V74.8H276.9V76.8H278.9ZM291.7 76.8H293.7V74.8H291.7V76.8ZM291.7 89.6V91.6H293.7V89.6H291.7ZM291.7 115.2H289.7V117.2H291.7V115.2ZM291.7 89.6V87.6H289.7V89.6H291.7ZM304.5 89.6H306.5V87.6H304.5V89.6ZM304.5 115.2V117.2H306.5V115.2H304.5ZM240.5 128H238.5V130H240.5V128ZM240.5 115.2V113.2H238.5V115.2H240.5ZM291.7 115.2H293.7V113.2H291.7V115.2ZM291.7 128V130H293.7V128H291.7ZM304.5 128H302.5V130H304.5V128ZM304.5 115.2V113.2H302.5V115.2H304.5ZM317.3 115.2H319.3V113.2H317.3V115.2ZM317.3 128V130H319.3V128H317.3ZM253.3 38.4H255.3V25.6H253.3H251.3V38.4H253.3ZM253.3 25.6V27.6H266.1V25.6V23.6H253.3V25.6ZM266.1 25.6H264.1V38.4H266.1H268.1V25.6H266.1ZM266.1 38.4V36.4H253.3V38.4V40.4H266.1V38.4ZM253.3 76.8H255.3V64H253.3H251.3V76.8H253.3ZM253.3 64V66H278.9V64V62H253.3V64ZM278.9 64H276.9V76.8H278.9H280.9V64H278.9ZM278.9 76.8V74.8H253.3V76.8V78.8H278.9V76.8ZM278.9 89.6H280.9V76.8H278.9H276.9V89.6H278.9ZM278.9 76.8V78.8H291.7V76.8V74.8H278.9V76.8ZM291.7 76.8H289.7V89.6H291.7H293.7V76.8H291.7ZM291.7 89.6V87.6H278.9V89.6V91.6H291.7V89.6ZM291.7 115.2H293.7V89.6H291.7H289.7V115.2H291.7ZM291.7 89.6V91.6H304.5V89.6V87.6H291.7V89.6ZM304.5 89.6H302.5V115.2H304.5H306.5V89.6H304.5ZM304.5 115.2V113.2H291.7V115.2V117.2H304.5V115.2ZM240.5 128H242.5V115.2H240.5H238.5V128H240.5ZM240.5 115.2V117.2H291.7V115.2V113.2H240.5V115.2ZM291.7 115.2H289.7V128H291.7H293.7V115.2H291.7ZM291.7 128V126H240.5V128V130H291.7V128ZM304.5 128H306.5V115.2H304.5H302.5V128H304.5ZM304.5 115.2V117.2H317.3V115.2V113.2H304.5V115.2ZM317.3 115.2H315.3V128H317.3H319.3V115.2H317.3ZM317.3 128V126H304.5V128V130H317.3V128ZM330.1 76.8H328.1V78.8H330.1V76.8ZM330.1 64V62H328.1V64H330.1ZM368.5 64H370.5V62H368.5V64ZM368.5 76.8V78.8H370.5V76.8H368.5ZM330.1 102.4V104.4H332.1V102.4H330.1ZM317.3 102.4H315.3V104.4H317.3V102.4ZM317.3 76.8V74.8H315.3V76.8H317.3ZM330.1 76.8H332.1V74.8H330.1V76.8ZM368.5 89.6H366.5V91.6H368.5V89.6ZM368.5 76.8V74.8H366.5V76.8H368.5ZM381.3 76.8H383.3V74.8H381.3V76.8ZM381.3 89.6V91.6H383.3V89.6H381.3ZM304.5 128H302.5V130H304.5V128ZM304.5 115.2V113.2H302.5V115.2H304.5ZM330.1 115.2V117.2H332.1V115.2H330.1ZM330.1 102.4V100.4H328.1V102.4H330.1ZM342.9 102.4H344.9V100.4H342.9V102.4ZM342.9 115.2H340.9V117.2H342.9V115.2ZM368.5 115.2H370.5V113.2H368.5V115.2ZM368.5 128V130H370.5V128H368.5ZM330.1 76.8H332.1V64H330.1H328.1V76.8H330.1ZM330.1 64V66H368.5V64V62H330.1V64ZM368.5 64H366.5V76.8H368.5H370.5V64H368.5ZM368.5 76.8V74.8H330.1V76.8V78.8H368.5V76.8ZM330.1 102.4V100.4H317.3V102.4V104.4H330.1V102.4ZM317.3 102.4H319.3V76.8H317.3H315.3V102.4H317.3ZM317.3 76.8V78.8H330.1V76.8V74.8H317.3V76.8ZM330.1 76.8H328.1V102.4H330.1H332.1V76.8H330.1ZM368.5 89.6H370.5V76.8H368.5H366.5V89.6H368.5ZM368.5 76.8V78.8H381.3V76.8V74.8H368.5V76.8ZM381.3 76.8H379.3V89.6H381.3H383.3V76.8H381.3ZM381.3 89.6V87.6H368.5V89.6V91.6H381.3V89.6ZM304.5 128H306.5V115.2H304.5H302.5V128H304.5ZM304.5 115.2V117.2H330.1V115.2V113.2H304.5V115.2ZM330.1 115.2H332.1V102.4H330.1H328.1V115.2H330.1ZM330.1 102.4V104.4H342.9V102.4V100.4H330.1V102.4ZM342.9 102.4H340.9V115.2H342.9H344.9V102.4H342.9ZM342.9 115.2V117.2H368.5V115.2V113.2H342.9V115.2ZM368.5 115.2H366.5V128H368.5H370.5V115.2H368.5ZM368.5 128V126H304.5V128V130H368.5V128ZM406.925 128V130H408.925V128H406.925ZM394.125 128H392.125V130H394.125V128ZM394.125 25.6V23.6H392.125V25.6H394.125ZM406.925 25.6H408.925V23.6H406.925V25.6ZM406.925 128V126H394.125V128V130H406.925V128ZM394.125 128H396.125V25.6H394.125H392.125V128H394.125ZM394.125 25.6V27.6H406.925V25.6V23.6H394.125V25.6ZM406.925 25.6H404.925V128H406.925H408.925V25.6H406.925Z" fill="#F4DB32" mask="url(#path-3-outside-2_4912_7)"/>
<path d="M468.506 27.0362L468.482 27.0651C470.343 27.0651 472.21 27.0651 474.071 27.1373C474.999 27.171 475.347 26.8533 475.328 25.9003C475.289 24.0519 475.357 22.1939 475.381 20.3407L475.342 20.384C477.189 20.3359 479.041 20.3455 480.878 20.2059C481.294 20.177 482.009 19.6572 482.014 19.3491C482.058 17.3997 481.942 15.4502 481.879 13.5008C486.085 13.5008 490.291 13.5008 494.498 13.5537C495.407 13.5537 495.788 13.3612 495.745 12.3744C495.663 10.526 495.701 8.66804 495.692 6.81486L495.658 6.85336C496.195 6.81004 496.731 6.72821 497.263 6.72821L541.771 6.76672C542.429 6.76672 543.091 6.69452 543.749 6.65601H543.884L543.908 6.79079C543.846 8.56696 543.821 10.3479 543.696 12.1241C543.618 13.2408 544.049 13.5345 545.146 13.52C549.222 13.4671 553.293 13.52 557.363 13.52L557.334 13.4815C557.334 15.3347 557.359 17.1879 557.291 19.0362C557.252 19.9989 557.562 20.2926 558.509 20.2781C560.443 20.2492 562.348 20.3359 564.263 20.3792L564.229 20.3359C564.195 24.5236 564.147 28.7065 564.151 32.8942C564.151 33.2552 564.524 33.9291 564.722 33.9291C566.801 33.9291 568.88 33.8136 570.954 33.7366L571.08 33.7991L571.055 33.9435C571.031 38.0687 570.983 42.1986 571.026 46.3238C571.026 46.8051 571.573 47.6186 571.887 47.6282C573.855 47.6956 575.827 47.5753 577.795 47.5175H577.93L577.959 47.6475V49.9724C577.959 51.0458 577.959 52.124 577.959 53.2022C577.906 53.852 577.81 54.5067 577.81 55.1565C577.81 66.8789 577.801 78.6013 577.785 90.3237C577.785 102.887 577.785 115.452 577.785 128.018C577.785 128.687 578.235 129.683 576.954 129.818H573.7C573.058 129.739 572.408 129.739 571.766 129.818C571.491 129.881 571.341 130.492 571.138 130.848C571.138 132.052 571.138 133.255 571.138 134.454C571.138 135.151 571.109 135.845 571.099 136.538C569.165 136.538 567.231 136.61 565.297 136.586C564.475 136.586 564.103 136.788 564.137 137.688C564.209 139.614 564.195 141.539 564.219 143.431L563.165 143.503H551.209L550.547 144.196C550.547 145.515 550.547 146.839 550.547 148.157L550.459 150.333L550.092 150.362C549.609 150.338 549.125 150.29 548.642 150.29C531.704 150.29 514.771 150.29 497.843 150.29C495.194 150.29 492.525 150.343 489.895 150.372L488.802 150.299V150.324C488.802 148.398 488.802 146.506 488.87 144.6C488.909 143.638 488.575 143.363 487.637 143.397C485.785 143.469 483.924 143.431 482.068 143.44L482.097 143.464L481.961 142.747C481.961 140.822 481.961 138.906 481.961 137L481.507 136.653C477.595 136.653 473.684 136.581 469.778 136.615C468.753 136.615 468.395 136.326 468.443 135.301C468.516 133.857 468.385 132.413 468.482 130.993C468.55 129.924 468.144 129.679 467.157 129.712C465.354 129.775 463.551 129.712 461.742 129.712V129.751C461.689 129.164 461.602 128.581 461.592 127.994C461.559 124.244 461.539 120.499 461.51 116.75C462.119 116.489 462.759 116.31 463.415 116.215C469.565 116.148 475.72 116.133 481.869 116.105L482.193 116.74C482.159 118.348 482.092 119.955 482.116 121.553C482.209 122.009 482.372 122.447 482.599 122.853H509.094L509.393 122.521L509.509 116.393L510.544 116.061H521.422L522.128 116.182H522.524C522.752 115.734 523.148 115.291 523.177 114.829C523.284 113.048 523.274 111.253 523.308 109.467L523.24 109.404L529.912 109.154C530.062 107.907 530.299 106.665 530.337 105.414C530.42 102.93 530.405 102.945 532.851 102.853C534.094 102.81 535.327 102.564 536.564 102.41C536.603 102.343 536.642 102.285 536.685 102.223C536.864 101.9 537.198 101.578 537.198 101.26C537.23 95.2719 537.23 89.2824 537.198 83.2912C537.112 82.9055 536.956 82.5386 536.739 82.2082L536.255 82.0012H516.766C516.568 82.445 516.428 82.9126 516.351 83.3923C516.293 85.1829 516.317 86.9687 516.312 88.7593H516.351L515.983 88.9518L489.876 88.9807C488.909 88.6823 488.797 89.2166 488.802 89.9916C488.802 91.8784 488.802 93.7653 488.764 95.6522V95.6137L468.941 95.6811L468.525 95.0649C468.525 94.8291 468.525 94.5836 468.525 94.3622L468.67 88.9037L469.937 88.8363L475.139 88.5668L475.299 83.1853C475.299 83.1275 475.299 83.0409 475.299 83.0072C474.956 82.6606 474.637 82.0445 474.259 82.0445C473.002 81.9242 471.712 82.1167 470.459 81.9723C468.845 81.7894 468.361 82.3478 468.487 83.941C468.612 85.5343 469.009 87.7003 468.202 88.432C467.283 89.2647 465.156 88.9133 463.565 88.8267C462.052 88.7449 461.66 89.2214 461.675 90.7184C461.757 98.6606 461.708 106.603 461.723 114.54C461.723 115.474 461.844 116.408 460.471 116.379C459.273 116.28 458.069 116.262 456.869 116.326C455.114 116.533 454.553 115.927 454.703 114.179C454.829 112.658 455.186 110.516 454.379 109.727C453.572 108.937 451.425 109.322 449.888 109.443C448.205 109.573 447.804 108.99 447.813 107.359C447.872 97.462 447.813 87.5656 447.813 77.6691C448.012 75.1901 448.012 75.2623 450.676 75.1709C452.049 75.1372 453.417 74.8821 454.79 74.7281C455.019 74.3095 455.183 73.8581 455.273 73.3899C455.414 68.9615 455.404 68.8749 459.775 68.9952C461.544 69.0433 462.008 68.5139 461.989 66.7762C461.902 58.9014 461.96 51.0265 461.945 43.1517C461.906 42.6261 461.823 42.1045 461.699 41.5921L461.67 41.0482L461.757 40.5669C463.512 40.7017 465.272 40.8027 467.022 40.9857C468.255 41.1156 468.53 40.5813 468.516 39.4453C468.463 35.325 468.501 31.1806 468.506 27.0362ZM509.456 47.7871L508.726 47.8497H503.316C503.094 48.0951 502.683 48.331 502.683 48.5861C502.654 50.5115 502.683 52.3984 502.726 54.3045L502.552 54.6607L495.682 54.6896C495.682 50.55 495.682 46.4056 495.735 42.2612C495.735 41.3755 495.552 40.9905 494.546 41.0049C490.809 41.0723 487.067 41.0675 483.329 41.0386C482.42 41.0386 482.034 41.2648 482.048 42.242C482.103 46.0221 482.116 49.8039 482.087 53.5873C482.087 54.4441 482.362 54.7329 483.228 54.7185C487.391 54.6703 491.548 54.6751 495.711 54.6607C495.711 58.8003 495.764 62.9447 495.711 67.0891C495.711 68.2443 496.04 68.6294 497.162 68.3358H502.228L502.596 68.3983V68.3743C502.63 70.1119 502.75 71.8496 502.663 73.5824C502.601 74.8484 502.992 75.1998 504.269 75.1853C509.205 75.1131 514.146 75.1853 519.087 75.1853C526.798 75.1853 534.51 75.1516 542.221 75.1853C543.265 75.1853 543.71 75.0169 543.638 73.8279C543.522 72.0373 543.638 70.2323 543.638 68.4368C543.73 68.4443 543.822 68.4205 543.899 68.3695L544.672 68.3358H550.107L550.459 68.0229V55.0265C550.459 54.9784 550.508 54.9303 550.498 54.8869C550.478 54.7966 550.451 54.7081 550.416 54.6222C554.632 54.6511 558.853 54.6607 563.068 54.7329C564.035 54.7329 564.147 54.3093 564.137 53.5247C564.103 49.8039 564.069 46.0783 564.137 42.3575C564.137 41.2071 563.731 40.9616 562.653 40.9857C559.157 41.0675 555.657 41.1156 552.161 41.0193C550.711 40.976 550.479 41.5007 550.498 42.7714C550.566 46.7281 550.498 50.6896 550.498 54.6511L548.352 54.7281H547.254C546.611 54.6674 545.965 54.6514 545.32 54.68C544.092 54.8196 543.643 54.4056 543.71 53.13C543.802 51.4838 543.676 49.8232 543.643 48.1673L543.285 47.8497H537.846L536.932 47.7678H536.961C536.961 45.9676 536.898 44.1674 536.961 42.3719C536.961 41.4429 536.816 40.9568 535.694 40.9616C527.437 41.0097 519.179 41.0097 510.921 40.9616C509.983 40.9616 509.654 41.2311 509.669 42.1842C509.698 44.0374 509.601 45.8954 509.558 47.7486L509.456 47.7871Z" fill="#F4DB32"/>
<path d="M489.88 150.381C492.53 150.352 495.199 150.299 497.829 150.299C514.76 150.299 531.693 150.299 548.627 150.299C549.111 150.299 549.594 150.348 550.078 150.372C550.194 152.528 550.308 154.688 550.421 156.851C550.585 158.068 551.513 157.919 552.355 157.919C557.48 157.919 562.604 157.919 567.724 157.919C572.486 157.919 571.785 158.482 571.839 153.799V153.621C571.877 151.469 572.264 151.074 574.353 151.065H576.523C578.636 151.065 579.11 150.656 579.071 148.567C579.023 145.881 578.767 143.195 578.747 140.509C578.709 135.594 579.11 135.811 574.188 135.941C572.791 135.975 571.771 135.715 571.084 134.449C571.084 133.25 571.084 132.042 571.084 130.843C571.998 130.661 573.299 131.421 573.647 129.823H576.876L577.781 130.429C577.964 129.861 578.307 129.293 578.307 128.725C578.336 104.158 578.336 79.5929 578.307 55.0313C578.237 54.4093 578.096 53.7973 577.887 53.207V49.9772C579.386 49.7076 578.83 48.692 578.68 47.8208C580.13 47.7919 581.581 47.8208 583.031 47.7101C584.293 47.5945 584.515 48.1144 584.481 49.2407C584.375 55.4983 584.341 61.7221 584.278 67.9651C584.056 68.5716 583.824 69.1733 583.64 69.7894C583.805 69.9134 583.989 70.0079 584.187 70.0686C584.549 69.5343 584.878 68.976 585.211 68.4224C586.841 68.4224 588.47 68.4224 590.095 68.3502C591.032 68.2973 591.207 68.716 591.187 69.5151C591.149 71.3105 591.163 73.1059 591.153 74.9061L584.868 75.1131C584.635 75.4885 584.471 75.9026 584.385 76.3357C584.356 82.3766 584.351 88.4224 584.409 94.4681C584.409 94.9157 584.921 95.3586 585.197 95.8062L585.473 96.3886L585.922 95.8062H590.631L591.115 96.1961L591.144 101.972L590.636 102.285C589.13 102.365 587.621 102.365 586.116 102.285C584.539 102.136 584.182 102.733 584.182 104.211C584.269 113.409 584.278 122.608 584.312 131.801C584.338 139.018 584.359 146.239 584.375 153.462C584.375 154.237 584.288 155.012 584.235 155.787L584.182 156.543C582.626 156.742 581.06 156.852 579.492 156.87C578.042 156.817 577.452 157.183 577.558 158.742C577.65 160.388 578.042 162.593 577.166 163.556C576.407 164.379 574.096 163.806 572.467 163.806C563.528 163.806 554.579 163.772 545.649 163.835C544.257 163.835 543.643 163.517 543.797 162.064C543.865 161.102 543.88 160.138 543.841 159.175C543.841 156.942 543.841 156.942 541.67 156.942H504.742C502.204 156.942 499.666 156.99 497.132 156.913C496.021 156.879 495.605 157.25 495.648 158.357C495.706 159.801 495.648 161.245 495.682 162.689C495.682 163.527 495.373 163.835 494.507 163.835C486.288 163.812 478.069 163.812 469.85 163.835C468.907 163.835 468.54 163.512 468.55 162.603C468.55 161.159 468.511 159.715 468.55 158.271C468.55 157.269 468.197 156.86 467.167 156.923C465.963 156.99 464.75 156.865 463.546 156.971C462.177 157.086 461.713 156.677 461.733 155.224C461.825 147.768 461.8 140.302 461.81 132.851C461.81 131.83 461.781 130.81 461.767 129.784C463.575 129.784 465.378 129.842 467.181 129.784C468.148 129.751 468.574 129.996 468.506 131.065C468.409 132.509 468.54 133.953 468.467 135.373C468.419 136.398 468.777 136.697 469.802 136.687C473.708 136.653 477.62 136.687 481.531 136.725L481.985 137.072C481.985 138.997 481.985 140.913 481.985 142.819C478.05 142.819 474.11 142.786 470.169 142.848C469.618 142.848 469.077 143.33 468.525 143.618L468.434 144.259C467.573 145.221 467.467 149.447 468.269 150.309C468.332 150.376 468.501 150.338 468.617 150.352H468.753L468.864 150.42C470.034 150.535 471.204 150.689 472.374 150.757C474.39 150.872 474.651 151.113 474.661 153.072C474.62 154.091 474.633 155.111 474.699 156.129C474.743 156.518 475.217 156.86 475.492 157.221H475.628L475.749 157.289C476.155 157.52 476.561 157.953 476.972 157.963C480.506 158.015 484.045 157.996 487.608 157.987C489.15 157.987 489.914 157.183 489.914 155.652C489.876 153.842 489.88 152.105 489.88 150.381Z" fill="black"/>
<path d="M447.789 77.6691C447.789 87.5656 447.857 97.462 447.789 107.359C447.789 108.99 448.181 109.573 449.863 109.443C451.401 109.322 453.538 108.928 454.355 109.727C455.172 110.526 454.805 112.658 454.679 114.179C454.529 115.927 455.09 116.533 456.845 116.326C458.045 116.262 459.249 116.28 460.447 116.379L461.544 116.764C461.573 120.514 461.592 124.259 461.626 128.008C461.626 128.596 461.723 129.178 461.776 129.765C460.031 129.765 458.276 129.669 456.545 129.823C455.017 129.963 454.688 129.342 454.79 127.999C454.882 126.805 454.79 125.592 454.858 124.408C454.925 123.224 454.626 122.781 453.383 122.853C451.763 122.945 450.139 122.853 448.515 122.853L448.162 122.559C448.128 121 448.036 119.44 448.084 117.886C448.128 116.591 447.712 115.96 446.324 116.109C445.304 116.201 444.26 116.018 443.25 116.138C441.557 116.34 440.968 115.825 441.001 114.02C441.127 108.071 441.05 102.121 441.055 96.172C441.055 89.7412 441.103 83.3105 441.055 76.8797C441.055 75.5704 441.33 75.0265 442.737 75.1468C444.294 75.2864 445.87 75.219 447.436 75.2431C447.562 76.0517 447.678 76.8508 447.789 77.6691Z" fill="black"/>
<path d="M543.749 6.65601C543.091 6.69452 542.429 6.76672 541.771 6.76672L497.263 6.73784C496.731 6.73784 496.195 6.81967 495.658 6.86299C495.687 5.12052 495.808 3.37323 495.716 1.64038C495.653 0.345559 496.088 0.0374967 497.336 0.0471236C509.229 0.0952583 521.122 0.0856314 533.011 0.0856314C535.849 0.0856314 538.692 0.124139 541.525 0.0086159C543.053 -0.0539592 543.831 0.186714 543.633 1.99176C543.459 3.52245 543.696 5.10126 543.749 6.65601Z" fill="black"/>
<path d="M591.202 101.948L591.173 96.172L590.689 95.7821H585.24C584.965 95.3345 584.457 94.8917 584.452 94.444C584.394 88.3983 584.399 82.3526 584.428 76.3117C584.514 75.8786 584.678 75.4644 584.912 75.0891L591.26 75.2383L591.207 75.2046L591.439 75.5897V78.1167C591.405 78.651 591.347 79.1853 591.342 79.7196C591.342 81.9338 591.342 81.9338 593.59 81.7413H598.285V81.876C598.285 88.1095 598.188 94.3429 598.285 100.576C598.314 102.247 597.777 102.627 596.254 102.502C594.886 102.401 593.493 102.54 592.115 102.574L591.202 101.948Z" fill="#F4DB32"/>
<path d="M447.789 77.6691C447.668 76.8508 447.552 76.0373 447.432 75.219C447.586 73.7124 447.813 72.2058 447.881 70.6944C447.983 68.355 447.934 68.3743 450.231 68.3213C451.71 68.2828 453.668 68.692 454.519 67.9218C455.264 67.2431 454.814 65.207 454.814 63.7726C454.814 56.7353 454.863 49.6932 454.814 42.6559C454.814 41.2937 455.167 40.8653 456.54 40.9712C458.097 41.0915 459.678 40.9712 461.249 40.9712L461.665 41.0627L461.694 41.6066C461.665 42.4441 461.612 43.2769 461.612 44.1144C461.612 51.6619 461.568 59.2094 461.641 66.7377C461.641 68.1143 461.254 68.509 459.924 68.3935C458.595 68.278 457.28 68.4224 455.96 68.355C455.056 68.3069 454.664 68.5283 454.713 69.5151C454.805 71.2479 454.771 72.9856 454.785 74.7232C453.412 74.8773 452.044 75.1324 450.671 75.1661C447.997 75.2431 447.997 75.1901 447.789 77.6691Z" fill="black"/>
<path d="M592.13 102.612C593.508 102.579 594.9 102.439 596.268 102.54C597.791 102.651 598.328 102.271 598.299 100.615C598.193 94.3814 598.299 88.148 598.299 81.9145C600.17 81.9145 602.046 81.9146 603.907 82.0349C604.28 82.0349 604.913 82.6462 604.913 82.9976C604.985 91.3489 604.985 99.7003 605 108.056C605 108.803 604.826 109.298 603.893 109.284C599.977 109.226 596.056 109.221 592.14 109.197L591.434 107.407C591.434 106.203 591.434 105 591.434 103.792L592.13 102.612Z" fill="black"/>
<path d="M570.935 33.7366C568.86 33.8136 566.782 33.9243 564.703 33.9291C564.504 33.9291 564.132 33.2552 564.132 32.8942C564.132 28.7065 564.176 24.5236 564.209 20.3359C565.887 20.3359 567.594 20.4514 569.242 20.307C570.741 20.177 570.997 20.7595 570.964 22.1024C570.877 25.9917 570.935 29.8425 570.935 33.7366Z" fill="black"/>
<path d="M468.506 27.0362C468.506 31.1806 468.463 35.325 468.506 39.4694C468.506 40.6054 468.245 41.1397 467.012 41.0097C465.262 40.8268 463.502 40.7257 461.747 40.5909C461.747 36.5813 461.805 32.5717 461.747 28.5573C461.747 27.455 462.018 27.1132 463.13 27.1132C464.914 27.1758 466.712 27.0747 468.506 27.0362Z" fill="black"/>
<path d="M495.692 6.81486C495.692 8.66804 495.663 10.526 495.745 12.3744C495.788 13.3612 495.407 13.5681 494.498 13.5537C490.291 13.5008 486.085 13.5104 481.879 13.5008H481.908L481.937 13.4189C481.985 11.7438 482.082 10.0495 482.063 8.39367C482.063 7.18068 482.063 6.75228 483.344 6.78116C487.328 6.86781 491.708 6.80523 495.692 6.81486Z" fill="black"/>
<path d="M557.344 13.52C553.273 13.52 549.202 13.4815 545.127 13.52C544.049 13.52 543.618 13.2408 543.676 12.1241C543.802 10.3479 543.826 8.56696 543.889 6.79079C547.916 6.79079 551.939 6.86299 555.976 6.79079C557.015 6.79079 557.33 7.08922 557.301 8.09524C557.262 9.92917 557.33 11.7246 557.344 13.52Z" fill="black"/>
<path d="M577.776 47.5175C575.808 47.5753 573.835 47.6956 571.868 47.6282C571.553 47.6282 571.012 46.7811 571.007 46.3238C570.964 42.1986 571.007 38.0687 571.036 33.9435C572.772 33.9965 574.512 34.1265 576.243 34.0639C577.389 34.0254 577.761 34.2949 577.742 35.5079C577.674 39.5127 577.751 43.5175 577.776 47.5175Z" fill="black"/>
<path d="M564.243 20.3792C562.309 20.3359 560.409 20.2492 558.49 20.2781C557.523 20.2781 557.233 19.9749 557.272 19.0362C557.339 17.1879 557.305 15.3347 557.315 13.4815C559.181 13.52 561.052 13.6018 562.923 13.5682C563.857 13.5682 564.205 13.8233 564.18 14.7908C564.142 16.6536 564.219 18.5164 564.243 20.3792Z" fill="black"/>
<path d="M475.381 20.3407C475.381 22.1939 475.289 24.0519 475.328 25.9003C475.328 26.8629 474.999 27.171 474.071 27.1373C472.21 27.0747 470.343 27.0844 468.482 27.0651C468.482 25.2938 468.588 23.5176 468.482 21.7703C468.414 20.5621 468.816 20.2252 469.986 20.2926C471.789 20.3792 473.587 20.3263 475.381 20.3407Z" fill="black"/>
<path d="M481.879 13.5008C481.942 15.4502 482.058 17.3997 482.014 19.3491C482.014 19.6572 481.294 20.177 480.878 20.2059C479.041 20.3455 477.189 20.3359 475.342 20.384C475.342 18.5356 475.371 16.6873 475.284 14.8437C475.236 13.7992 475.623 13.52 476.624 13.5441C478.354 13.5874 480.09 13.5008 481.826 13.4671L481.908 13.5056L481.879 13.5008Z" fill="black"/>
<path d="M591.429 78.1312V75.6041L591.767 75.2431C593.319 75.2431 594.876 75.2431 596.428 75.1613C597.632 75.0939 598.125 75.4404 598.048 76.7497C597.946 78.4055 598.096 80.0806 598.135 81.7461H593.576C593.574 81.0077 593.374 80.2831 592.997 79.6475C592.619 79.0119 592.078 78.4883 591.429 78.1312Z" fill="black"/>
<path d="M585.24 68.4128C584.907 68.9663 584.578 69.5247 584.216 70.059C584.018 69.9982 583.834 69.9038 583.669 69.7798C583.853 69.1637 584.085 68.562 584.307 67.9555L585.24 68.4128Z" fill="black"/>
<path d="M591.255 75.2527L584.907 75.0891L591.192 74.8821C591.236 74.9524 591.273 75.0265 591.303 75.1035C591.308 75.1564 591.269 75.2046 591.255 75.2527Z" fill="black"/>
<path d="M578.714 47.8111C578.863 48.6824 579.419 49.698 577.921 49.9676V47.6427L578.714 47.8111Z" fill="black"/>
<path d="M592.13 102.612L591.443 103.763C591.197 103.282 590.96 102.762 590.694 102.261L591.202 101.948L592.13 102.612Z" fill="black"/>
<path d="M591.424 107.378L592.13 109.168C590.742 109.024 591.501 108.037 591.424 107.378Z" fill="black"/>
<path d="M591.772 75.2431L591.434 75.6041L591.202 75.219L591.772 75.2431Z" fill="black"/>
<path d="M481.908 13.5056L481.826 13.4671L481.845 13.3612L481.937 13.4237L481.908 13.5056Z" fill="#F4DB32"/>
<path d="M461.655 41.0482L461.24 40.9568L461.723 40.5813L461.655 41.0482Z" fill="#9F9F9F"/>
<path d="M483.716 122.877H482.628C482.496 120.836 482.369 118.797 482.246 116.759L481.922 116.124C481.4 115.913 480.852 115.771 480.293 115.7C475.004 115.7 469.72 115.811 464.43 115.806C463.463 115.806 462.303 115.864 462.308 114.28C462.308 106.425 462.308 98.5643 462.376 90.6943C462.447 90.3917 462.595 90.1124 462.806 89.8831C463.017 89.6539 463.283 89.4824 463.58 89.3851C465.195 89.4004 466.809 89.5 468.414 89.6835C468.458 91.2382 468.506 92.7978 468.55 94.3526V95.0553L468.965 95.6714L488.788 95.604C488.843 97.8696 488.894 100.137 488.942 102.405C488.991 104.674 488.991 106.941 488.942 109.207C488.913 110.945 488.942 112.692 488.822 114.42C488.701 115.898 489.179 116.345 490.702 116.345C496.794 116.273 502.886 116.345 508.982 116.345L509.5 116.403L509.384 122.531L509.084 122.863H507.256C506.763 122.703 506.254 122.594 505.738 122.535C498.896 122.516 492.054 122.516 485.215 122.535C484.705 122.597 484.202 122.712 483.716 122.877ZM475.347 102.41C473.471 102.41 471.595 102.343 469.734 102.458C469.465 102.517 469.215 102.642 469.007 102.822C468.799 103.002 468.64 103.231 468.545 103.489C468.412 105.106 468.412 106.732 468.545 108.35C468.632 108.608 468.784 108.839 468.986 109.022C469.189 109.204 469.434 109.333 469.7 109.395C473.442 109.472 477.189 109.395 480.931 109.448C481.898 109.448 482.188 109.072 482.155 108.162C482.101 106.718 482.087 105.274 482.155 103.83C482.203 102.766 481.893 102.304 480.738 102.357C478.949 102.468 477.131 102.405 475.347 102.41Z" fill="black"/>
<path d="M550.421 55.0313V68.0277L550.068 68.3406H544.634C544.634 66.5451 544.537 64.7401 544.658 62.9495C544.769 61.284 544.174 60.6583 542.492 60.7979C540.166 60.9904 537.826 61.1541 535.496 61.1348C529.486 61.0915 523.482 60.9134 517.477 60.8412C513.609 60.7931 509.708 60.7882 505.825 60.8412C504.858 60.8412 503.891 61.2648 502.924 61.491H502.891L502.567 61.8617C502.447 64.0117 502.325 66.1649 502.199 68.3213H500.033C499.55 67.3586 499.066 67.3586 498.583 68.3213H497.132C496.891 67.6041 496.456 66.8773 496.436 66.1649C496.359 63.0746 496.436 59.9844 496.398 56.8942C496.398 55.5656 496.881 54.9688 498.332 54.9688C499.74 54.9331 501.146 54.8206 502.543 54.6318L502.717 54.2756C502.971 53.8064 503.154 53.3018 503.258 52.7786C503.331 51.1324 503.297 49.4766 503.306 47.8208H508.707C508.707 49.5296 508.658 51.2383 508.75 52.9423C508.75 53.4236 509.234 53.8328 509.466 54.2804C509.491 54.3112 509.504 54.3494 509.504 54.3887C509.504 54.4281 509.491 54.4663 509.466 54.497C509.877 54.7859 510.288 55.3202 510.704 55.3202C519.159 55.3731 527.625 55.3442 536.076 55.3731C537.386 55.3731 537.744 54.7859 537.71 53.6066C537.662 51.6812 537.71 49.7558 537.71 47.8304H543.149L543.507 48.1481C543.541 49.8039 543.667 51.4646 543.575 53.1108C543.507 54.3863 543.957 54.8003 545.185 54.6607C545.83 54.6321 546.476 54.6482 547.119 54.7088H548.216L550.421 55.0313Z" fill="black"/>
<path d="M543.86 68.3502C543.783 68.4013 543.691 68.425 543.599 68.4176C542.937 68.4176 542.274 68.3791 541.612 68.3791H502.543V68.4032V61.8857L502.866 61.5151H502.9C509.911 61.5151 516.921 61.5151 523.931 61.5151C529.975 61.5151 536.018 61.5392 542.057 61.4766C543.333 61.4766 543.734 61.8809 543.701 63.1276C543.676 64.8749 543.807 66.6222 543.86 68.3502Z" fill="#D53335"/>
<path d="M502.543 68.3839H541.612C542.274 68.3839 542.937 68.3839 543.599 68.4224C543.599 70.2178 543.468 72.0229 543.599 73.8135C543.672 75.0024 543.227 75.1757 542.182 75.1709C534.447 75.142 526.76 75.1709 519.048 75.1709C514.107 75.1709 509.166 75.1131 504.23 75.1709C502.954 75.1709 502.562 74.8339 502.625 73.568C502.697 71.8592 502.576 70.1216 502.543 68.3839Z" fill="black"/>
<path d="M508.992 116.355C502.895 116.355 496.804 116.268 490.712 116.355C489.189 116.355 488.71 115.922 488.831 114.43C488.971 112.701 488.923 110.954 488.952 109.217C495.237 109.217 501.489 109.178 507.754 109.217C508.895 109.217 509.688 109.048 509.461 107.676C509.214 106.174 509.945 105.751 511.308 105.924C511.791 105.953 512.275 105.953 512.758 105.924C516.331 105.924 516.331 105.924 516.355 102.314C517.98 102.314 519.609 102.223 521.224 102.343C522.757 102.463 523.491 102.054 523.264 100.418C523.204 99.5216 523.204 98.6227 523.264 97.7268C523.264 95.9217 523.917 95.3489 525.769 95.4981L530.052 95.8592V102.348C530.029 102.34 530.005 102.337 529.981 102.339C529.957 102.341 529.933 102.348 529.912 102.36C529.891 102.372 529.873 102.388 529.859 102.407C529.844 102.427 529.835 102.449 529.83 102.473C528.152 102.502 526.445 102.598 524.787 102.535C523.651 102.492 523.153 102.781 523.221 104.018C523.322 105.809 523.255 107.609 523.259 109.404L523.327 109.467L522.892 109.568C518.879 109.534 514.866 109.525 510.858 109.457C509.94 109.457 509.543 109.741 509.577 110.675C509.63 112.225 509.63 113.775 509.65 115.32L508.992 116.355Z" fill="#9F9F9F"/>
<path d="M530.033 102.333V95.8447C530.033 94.0493 529.989 92.2491 530.11 90.4633C530.202 89.1299 529.772 88.6823 528.408 88.7063C524.381 88.793 520.354 88.7545 516.322 88.7641C516.322 86.9735 516.322 85.1877 516.36 83.3971C516.438 82.9174 516.577 82.4498 516.776 82.006L516.931 82.0686L517.081 82.006H536.265L536.748 82.213L536.69 102.232C536.647 102.295 536.608 102.353 536.569 102.42L530.033 102.333Z" fill="black"/>
<path d="M509.509 54.5259C509.534 54.4952 509.548 54.457 509.548 54.4176C509.548 54.3783 509.534 54.3401 509.509 54.3093L509.48 47.7871H509.456H536.884H536.855C536.903 49.3948 536.855 51.0169 537.019 52.6005C537.183 54.1842 536.681 54.7666 534.959 54.7377C528.041 54.6366 521.127 54.704 514.209 54.6848C512.623 54.6896 511.066 54.5837 509.509 54.5259Z" fill="#D53335"/>
<path d="M488.942 102.415C488.891 100.146 488.839 97.8792 488.788 95.6137V95.6522L489.532 95.4885H516.37C516.37 97.7637 516.37 100.044 516.37 102.328H513.469L488.942 102.415Z" fill="#9F9F9F"/>
<path d="M495.711 54.6655C491.548 54.6655 487.391 54.6655 483.228 54.7233C482.362 54.7233 482.082 54.4489 482.087 53.5921C482.109 49.8087 482.097 46.027 482.048 42.2468C482.048 41.2841 482.42 41.0338 483.329 41.0434C487.067 41.0723 490.809 41.0771 494.546 41.0097C495.552 41.0097 495.745 41.3804 495.735 42.266C495.687 46.4104 495.692 50.5548 495.682 54.6944L495.711 54.6655Z" fill="black"/>
<path d="M550.416 54.6559C550.416 50.6944 550.508 46.7329 550.416 42.7763C550.416 41.4863 550.643 40.9808 552.079 41.0242C555.575 41.1204 559.075 41.0723 562.57 40.9905C563.649 40.9905 564.074 41.2119 564.055 42.3623C564.006 46.0831 564.055 49.8087 564.055 53.5295C564.055 54.3141 563.934 54.7522 562.986 54.7377C558.77 54.6655 554.55 54.6559 550.334 54.627L550.416 54.6559Z" fill="black"/>
<path d="M536.859 47.8063H509.432C509.476 45.9532 509.572 44.0952 509.543 42.242C509.543 41.2793 509.857 41.0145 510.795 41.0193C519.053 41.0418 527.311 41.0418 535.569 41.0193C536.69 41.0193 536.85 41.5007 536.835 42.4297C536.797 44.2059 536.845 46.0061 536.859 47.8063Z" fill="black"/>
<path d="M468.849 150.352L468.738 150.285H468.603L468.419 144.191L468.511 143.551L482.116 143.474L482.087 143.45C482.135 145.115 482.3 146.786 482.203 148.441C482.116 149.977 482.686 150.41 484.137 150.319C485.684 150.218 487.245 150.319 488.802 150.319V150.295C488.802 151.96 488.802 153.63 488.894 155.296C488.981 156.682 488.498 157.183 487.062 157.159C483.291 157.091 479.52 157.159 475.749 157.197L475.628 157.13H475.492C475.434 155.339 475.323 153.544 475.342 151.748C475.342 150.694 475.057 150.203 473.916 150.261C472.219 150.362 470.513 150.333 468.849 150.352Z" fill="#D53335"/>
<path d="M516.351 95.4837H489.513C489.731 93.3225 488.372 91.0649 489.88 88.9759L515.988 88.947L516.307 89.3128L516.351 95.4837Z" fill="black"/>
<path d="M516.351 95.4837L516.302 89.3177L516.351 88.7593H516.312C520.339 88.7593 524.366 88.7882 528.399 88.7015C529.762 88.7015 530.192 89.1251 530.1 90.4584C529.98 92.2442 530.042 94.0445 530.023 95.8399L525.74 95.4789C523.888 95.3297 523.24 95.9025 523.235 97.7075C523.175 98.6034 523.175 99.5024 523.235 100.398C523.462 102.059 522.728 102.468 521.195 102.324C519.58 102.203 517.951 102.295 516.326 102.295C516.342 100.032 516.351 97.7621 516.351 95.4837Z" fill="#828282"/>
<path d="M468.405 89.6931C466.799 89.5096 465.186 89.41 463.57 89.3947C463.273 89.492 463.007 89.6635 462.796 89.8928C462.585 90.122 462.437 90.4013 462.366 90.7039C462.289 98.5595 462.322 106.42 462.298 114.29C462.298 115.874 463.473 115.816 464.421 115.816C469.71 115.816 474.994 115.729 480.283 115.71C480.843 115.781 481.39 115.923 481.913 116.133C475.763 116.162 469.608 116.177 463.459 116.244C462.803 116.338 462.162 116.518 461.554 116.778L460.456 116.393C461.829 116.422 461.713 115.488 461.708 114.555C461.708 106.617 461.742 98.6702 461.66 90.7328C461.66 89.2358 462.037 88.7593 463.551 88.8411C465.141 88.923 467.268 89.2792 468.187 88.4464C468.994 87.7148 468.598 85.4958 468.472 83.9555C468.347 82.4152 468.83 81.8038 470.445 81.9868C471.697 82.1312 472.988 81.9386 474.245 82.059C474.622 82.0975 474.941 82.6943 475.284 83.0216C475.313 83.0553 475.284 83.142 475.284 83.1998L475.139 88.5668L469.952 88.8171L468.685 88.8845L468.405 89.6931Z" fill="black"/>
<path d="M509.63 115.306C509.63 113.76 509.63 112.211 509.558 110.661C509.524 109.727 509.92 109.428 510.839 109.443C514.847 109.51 518.86 109.52 522.873 109.553C522.873 111.83 523.143 114.165 521.422 116.056H510.544L509.63 115.306Z" fill="black"/>
<path d="M551.161 143.508H563.117C563.242 144.99 563.349 146.473 563.489 147.955C563.586 148.995 563.097 149.308 562.106 149.284C560.121 149.157 558.129 149.17 556.145 149.322C554.081 149.573 552.147 149.804 550.517 148.182C550.517 146.863 550.517 145.539 550.517 144.22L551.161 143.508Z" fill="black"/>
<path d="M577.911 53.1974C578.12 53.7877 578.261 54.3997 578.332 55.0217C578.357 79.5864 578.357 104.151 578.332 128.716C578.332 129.284 577.988 129.852 577.805 130.42L576.876 129.813C578.158 129.679 577.708 128.682 577.708 128.013C577.727 115.45 577.727 102.885 577.708 90.3189C577.708 78.5997 577.716 66.8773 577.732 55.1517C577.761 54.5019 577.843 53.8472 577.911 53.1974Z" fill="black"/>
<path d="M571.075 134.439C571.742 135.705 572.781 135.965 574.179 135.931C579.1 135.801 578.699 135.585 578.738 140.499C578.738 143.185 579.013 145.871 579.062 148.557C579.1 150.646 578.627 151.046 576.514 151.055H574.343C572.254 151.055 571.868 151.459 571.829 153.611V153.789C571.776 158.473 572.477 157.89 567.715 157.91C562.595 157.91 557.47 157.91 552.345 157.91C551.504 157.91 550.576 158.059 550.411 156.841L550.474 156.793C550.871 156.937 551.283 157.038 551.702 157.091C557.741 157.12 563.789 157.115 569.823 157.144C570.789 157.144 571.084 156.663 571.075 155.806C571.075 154.482 571.142 153.154 571.075 151.835C570.997 150.627 571.505 150.242 572.656 150.299C573.918 150.367 575.189 150.275 576.456 150.324C577.355 150.352 577.79 150.059 577.795 149.106C577.821 145.377 577.874 141.65 577.955 137.924C577.955 136.918 577.558 136.538 576.543 136.571C574.735 136.629 572.922 136.596 571.109 136.6L571.051 136.519C571.041 135.83 571.075 135.137 571.075 134.439Z" fill="black"/>
<path d="M564.171 143.44C564.147 141.515 564.171 139.59 564.089 137.698C564.055 136.798 564.427 136.586 565.249 136.596C567.183 136.596 569.117 136.567 571.051 136.547L571.109 136.629C571.109 138.434 571.026 140.235 571.046 142.04C571.046 143.036 570.669 143.435 569.653 143.421C567.84 143.392 566.032 143.46 564.219 143.488L564.171 143.44Z" fill="black"/>
<path d="M488.812 150.333C487.255 150.333 485.694 150.218 484.146 150.333C482.696 150.425 482.106 149.991 482.213 148.456C482.309 146.8 482.145 145.13 482.097 143.464C483.953 143.464 485.814 143.493 487.666 143.421C488.604 143.387 488.938 143.666 488.899 144.624C488.797 146.516 488.831 148.422 488.812 150.333Z" fill="black"/>
<path d="M523.24 109.39C523.24 107.594 523.303 105.794 523.201 104.004C523.134 102.766 523.632 102.478 524.768 102.521C526.445 102.584 528.152 102.487 529.81 102.458L529.912 109.14L523.24 109.39Z" fill="black"/>
<path d="M543.86 68.3502C543.807 66.6125 543.676 64.8653 543.725 63.1276C543.759 61.8809 543.357 61.4621 542.081 61.4766C536.042 61.5392 529.994 61.5199 523.956 61.5151C516.945 61.5151 509.935 61.5151 502.924 61.5151C503.891 61.2889 504.858 60.8845 505.825 60.8653C509.693 60.7883 513.595 60.7931 517.477 60.8653C523.482 60.9375 529.486 61.1156 535.496 61.1589C537.826 61.1589 540.166 61.0145 542.492 60.822C544.17 60.6824 544.769 61.3033 544.658 62.9736C544.537 64.7642 544.634 66.5692 544.634 68.3647L543.86 68.3502Z" fill="black"/>
<path d="M509.509 54.5259C511.066 54.5837 512.623 54.6896 514.185 54.6944C521.103 54.6944 528.017 54.6463 534.935 54.7473C536.656 54.7762 537.145 54.2131 536.995 52.6102C536.845 51.0073 536.879 49.39 536.83 47.7967L537.744 47.8785C537.744 49.8039 537.705 51.7293 537.744 53.6547C537.778 54.834 537.42 55.4309 536.11 55.4212C527.654 55.3924 519.188 55.4212 510.737 55.3683C510.331 55.3538 509.92 54.8147 509.509 54.5259Z" fill="black"/>
<path d="M550.517 148.162C552.147 149.784 554.081 149.553 556.145 149.303C558.129 149.151 560.121 149.138 562.106 149.265C563.097 149.265 563.586 148.976 563.489 147.936C563.349 146.454 563.242 144.971 563.117 143.488L564.171 143.416L564.2 143.464C564.2 145.197 564.093 146.935 564.161 148.663C564.209 149.924 563.75 150.324 562.493 150.309C558.471 150.256 554.443 150.309 550.406 150.309L550.517 148.162Z" fill="black"/>
<path d="M454.775 74.7281C454.775 72.9904 454.775 71.2527 454.703 69.5199C454.655 68.5331 455.046 68.3117 455.95 68.3598C457.27 68.4272 458.6 68.2828 459.915 68.3983C461.23 68.5139 461.641 68.1192 461.631 66.7425C461.559 59.195 461.597 51.6475 461.602 44.1192C461.602 43.2817 461.655 42.4489 461.684 41.6114C461.809 42.1237 461.891 42.6453 461.931 43.171C461.931 51.0458 461.887 58.9206 461.974 66.7955C461.974 68.5187 461.53 69.0626 459.76 69.0145C455.409 68.8941 455.409 68.9808 455.259 73.4092C455.166 73.8707 455.003 74.3155 454.775 74.7281Z" fill="#9F9F9F"/>
<path d="M475.734 157.212C479.505 157.188 483.276 157.106 487.047 157.173C488.498 157.197 488.981 156.692 488.88 155.31C488.773 153.645 488.812 151.975 488.788 150.309L489.88 150.381C489.88 152.114 489.88 153.842 489.88 155.575C489.88 157.106 489.117 157.905 487.574 157.91C484.035 157.91 480.496 157.938 476.938 157.885C476.546 157.881 476.14 157.443 475.734 157.212Z" fill="black"/>
<path d="M483.716 122.877C484.209 122.715 484.718 122.606 485.234 122.55C492.074 122.531 498.915 122.531 505.758 122.55C506.273 122.608 506.782 122.718 507.276 122.877H483.716Z" fill="black"/>
<path d="M536.685 102.208L536.743 82.1889C536.961 82.5193 537.117 82.8863 537.203 83.2719C537.232 89.2599 537.232 95.2495 537.203 101.241C537.198 101.563 536.864 101.886 536.685 102.208Z" fill="#828282"/>
<path d="M502.552 54.6655C501.156 54.8543 499.75 54.9668 498.341 55.0025C496.891 54.9736 496.407 55.5849 496.407 56.9279C496.407 60.0181 496.369 63.1083 496.446 66.1986C496.446 66.9206 496.9 67.6426 497.142 68.355C496.04 68.6486 495.692 68.2636 495.692 67.1083C495.755 62.9639 495.692 58.8195 495.692 54.68L495.663 54.7088L502.552 54.6655Z" fill="black"/>
<path d="M482.116 143.474L468.521 143.556C469.072 143.286 469.613 142.795 470.164 142.786C474.105 142.723 478.045 142.757 481.98 142.757L482.116 143.474Z" fill="black"/>
<path d="M529.912 109.14L529.81 102.458C529.815 102.435 529.825 102.412 529.839 102.393C529.854 102.373 529.872 102.357 529.893 102.345C529.914 102.334 529.937 102.326 529.962 102.324C529.986 102.322 530.01 102.325 530.033 102.333L536.564 102.396C535.327 102.55 534.094 102.795 532.851 102.839C530.405 102.93 530.434 102.916 530.337 105.399C530.299 106.651 530.062 107.893 529.912 109.14Z" fill="#828282"/>
<path d="M503.316 47.8545C503.316 49.5103 503.34 51.1661 503.268 52.8123C503.163 53.3355 502.981 53.8401 502.726 54.3093C502.726 52.3839 502.654 50.4971 502.683 48.5909C502.683 48.3406 503.094 48.1 503.316 47.8545Z" fill="black"/>
<path d="M509.456 47.7871L509.485 54.3093C509.234 53.8617 508.789 53.4285 508.77 52.9712C508.678 51.2672 508.731 49.5584 508.726 47.8497L509.456 47.7871Z" fill="black"/>
<path d="M482.246 116.754C482.372 118.795 482.499 120.835 482.628 122.872C482.401 122.466 482.238 122.028 482.145 121.573C482.145 119.97 482.213 118.362 482.246 116.754Z" fill="black"/>
<path d="M521.422 116.056C523.143 114.165 522.873 111.83 522.873 109.553L523.308 109.452C523.274 111.238 523.308 113.034 523.177 114.815C523.148 115.296 522.752 115.72 522.524 116.167H522.128L521.422 116.056Z" fill="black"/>
<path d="M489.88 88.9807C488.372 91.0698 489.731 93.3128 489.513 95.4885L488.768 95.6522C488.768 93.7653 488.822 91.8784 488.807 89.9915C488.802 89.2166 488.913 88.6823 489.88 88.9807Z" fill="black"/>
<path d="M573.642 129.813C573.294 131.411 571.993 130.651 571.08 130.834C571.283 130.478 571.432 129.871 571.708 129.804C572.351 129.728 573 129.731 573.642 129.813Z" fill="black"/>
<path d="M502.567 61.8857V68.408L502.199 68.3454C502.322 66.1954 502.444 64.0422 502.567 61.8857Z" fill="black"/>
<path d="M550.406 156.846C550.29 154.683 550.176 152.523 550.063 150.367L550.43 150.338C550.43 152.494 550.447 154.652 550.479 156.812L550.406 156.846Z" fill="black"/>
<path d="M468.405 89.6931L468.685 88.9037L468.54 94.3429C468.496 92.8074 468.448 91.2479 468.405 89.6931Z" fill="#828282"/>
<path d="M509.63 115.306L510.544 116.081L509.509 116.413L508.992 116.355L509.63 115.306Z" fill="black"/>
<path d="M498.554 68.3502C499.041 67.3875 499.524 67.3875 500.004 68.3502H498.554Z" fill="black"/>
<path d="M550.421 55.0313L548.269 54.7329L550.416 54.6559L550.377 54.627C550.412 54.7129 550.439 54.8014 550.459 54.8918C550.469 54.9351 550.435 54.9832 550.421 55.0313Z" fill="black"/>
<path d="M517.071 82.006L516.921 82.0686L516.766 82.006H517.071Z" fill="#828282"/>
<path d="M516.351 88.7593L516.302 89.3177L515.983 88.9518L516.351 88.7593Z" fill="black"/>
<path d="M468.849 150.352C470.532 150.352 472.234 150.352 473.902 150.285C475.043 150.227 475.352 150.718 475.328 151.772C475.328 153.568 475.42 155.363 475.478 157.154C475.202 156.793 474.728 156.451 474.685 156.061C474.619 155.044 474.606 154.023 474.646 153.005C474.646 151.046 474.375 150.805 472.359 150.689C471.189 150.622 470.029 150.468 468.849 150.352Z" fill="black"/>
<path d="M468.419 144.196L468.603 150.29C468.487 150.29 468.318 150.29 468.255 150.247C467.438 149.385 467.558 145.144 468.419 144.196Z" fill="black"/>
<path d="M585.24 95.787H585.966L585.516 96.3694L585.24 95.787Z" fill="black"/>
<path d="M591.429 78.1312C592.08 78.4885 592.624 79.0133 593.002 79.6508C593.38 80.2883 593.58 81.0152 593.58 81.7557C591.323 81.9482 591.318 81.9482 591.332 79.734C591.337 79.1997 591.381 78.6655 591.429 78.1312Z" fill="black"/>
<path d="M488.942 102.415L513.464 102.328H516.365C516.341 105.939 516.341 105.939 512.768 105.939C512.285 105.968 511.801 105.968 511.318 105.939C509.969 105.775 509.224 106.189 509.471 107.691C509.693 109.062 508.905 109.236 507.764 109.231C501.479 109.202 495.228 109.231 488.962 109.231C488.952 106.953 488.946 104.681 488.942 102.415Z" fill="#828282"/>
<path d="M475.347 102.405C477.155 102.405 478.973 102.468 480.781 102.381C481.937 102.328 482.232 102.791 482.198 103.854C482.13 105.298 482.145 106.742 482.198 108.186C482.232 109.096 481.947 109.481 480.975 109.472C477.233 109.438 473.486 109.496 469.744 109.419C469.476 109.358 469.227 109.229 469.023 109.046C468.819 108.862 468.666 108.629 468.579 108.369C468.446 106.752 468.446 105.126 468.579 103.508C468.669 103.25 468.823 103.018 469.027 102.835C469.23 102.652 469.477 102.522 469.744 102.458C471.571 102.343 473.447 102.41 475.347 102.405Z" fill="#828282"/>
<path d="M550.469 156.798C550.469 154.641 550.453 152.483 550.421 150.324C554.443 150.324 558.471 150.256 562.508 150.324C563.765 150.324 564.224 149.938 564.176 148.677C564.108 146.949 564.176 145.212 564.214 143.479C566.027 143.45 567.835 143.382 569.648 143.411C570.664 143.411 571.051 143.026 571.041 142.03C571.041 140.225 571.08 138.425 571.104 136.62C572.917 136.62 574.73 136.648 576.538 136.591C577.553 136.557 577.988 136.937 577.95 137.943C577.872 141.669 577.819 145.396 577.79 149.125C577.79 150.088 577.35 150.372 576.451 150.343C575.184 150.295 573.913 150.386 572.651 150.319C571.5 150.261 570.993 150.646 571.07 151.854C571.152 153.173 571.07 154.502 571.07 155.825C571.07 156.687 570.789 157.168 569.818 157.163C563.779 157.135 557.731 157.139 551.697 157.111C551.277 157.052 550.865 156.947 550.469 156.798Z" fill="#D53335"/>
</svg>
