<svg width="766" height="231" viewBox="0 0 766 231" fill="none" xmlns="http://www.w3.org/2000/svg">
<path d="M587.06 35.4438L587.028 35.4817C589.468 35.4817 591.915 35.4817 594.355 35.5764C595.572 35.6205 596.028 35.204 596.003 33.9546C595.952 31.5314 596.041 29.0956 596.073 26.6662L596.022 26.7229C598.443 26.6598 600.871 26.6725 603.279 26.4895C603.824 26.4516 604.762 25.7701 604.769 25.3662C604.826 22.8105 604.674 20.2549 604.591 17.6992C610.106 17.6992 615.62 17.6992 621.134 17.7686C622.326 17.7686 622.826 17.5162 622.769 16.2225C622.662 13.7994 622.712 11.3636 622.7 8.93411L622.655 8.98459C623.359 8.9278 624.062 8.82052 624.759 8.82052L683.109 8.87101C683.971 8.87101 684.839 8.77635 685.701 8.72587H685.879L685.91 8.90256C685.828 11.2311 685.796 13.5659 685.632 15.8944C685.53 17.3584 686.094 17.7433 687.533 17.7244C692.876 17.655 698.213 17.7244 703.55 17.7244L703.512 17.6739C703.512 20.1034 703.543 22.5329 703.455 24.9561C703.404 26.2181 703.81 26.6031 705.052 26.5841C707.587 26.5463 710.084 26.6598 712.594 26.7166L712.55 26.6598C712.506 32.1498 712.442 37.6335 712.449 43.1235C712.449 43.5968 712.937 44.4802 713.196 44.4802C715.922 44.4802 718.647 44.3288 721.366 44.2278L721.531 44.3099L721.499 44.4992C721.468 49.9071 721.404 55.3214 721.461 60.7293C721.461 61.3604 722.178 62.4268 722.59 62.4394C725.169 62.5278 727.755 62.37 730.335 62.2943H730.512L730.55 62.4647V65.5126C730.55 66.9198 730.55 68.3333 730.55 69.7468C730.481 70.5987 730.354 71.4569 730.354 72.3088C730.354 87.6766 730.343 103.044 730.322 118.412C730.322 134.882 730.322 151.354 730.322 167.828C730.322 168.705 730.912 170.012 729.232 170.188H724.966C724.125 170.084 723.273 170.084 722.431 170.188C722.07 170.27 721.873 171.072 721.607 171.539C721.607 173.116 721.607 174.694 721.607 176.265C721.607 177.18 721.569 178.089 721.557 178.998C719.021 178.998 716.486 179.092 713.951 179.061C712.873 179.061 712.385 179.326 712.429 180.506C712.525 183.03 712.506 185.554 712.537 188.034L711.156 188.129H695.481L694.613 189.037C694.613 190.766 694.613 192.502 694.613 194.231L694.499 197.083L694.017 197.121C693.383 197.089 692.749 197.026 692.116 197.026C669.911 197.026 647.712 197.026 625.52 197.026C622.047 197.026 618.548 197.096 615.1 197.134L613.668 197.039V197.07C613.668 194.546 613.668 192.066 613.756 189.567C613.807 188.305 613.37 187.946 612.14 187.99C609.713 188.085 607.272 188.034 604.838 188.047L604.877 188.078L604.699 187.138C604.699 184.614 604.699 182.102 604.699 179.603L604.103 179.149C598.976 179.149 593.848 179.054 588.727 179.099C587.383 179.099 586.914 178.72 586.977 177.376C587.073 175.483 586.901 173.59 587.028 171.728C587.117 170.327 586.584 170.005 585.291 170.05C582.927 170.132 580.563 170.05 578.193 170.05V170.1C578.123 169.33 578.009 168.567 577.996 167.797C577.952 162.881 577.926 157.972 577.888 153.056C578.686 152.714 579.526 152.479 580.386 152.355C588.448 152.267 596.516 152.248 604.579 152.21L605.003 153.043C604.959 155.151 604.87 157.259 604.902 159.354C605.024 159.951 605.238 160.525 605.536 161.057H640.269L640.662 160.622L640.814 152.589L642.171 152.153H656.431L657.357 152.311H657.877C658.174 151.724 658.694 151.144 658.732 150.538C658.872 148.203 658.859 145.849 658.903 143.508L658.815 143.426L667.561 143.098C667.758 141.464 668.068 139.836 668.119 138.195C668.227 134.939 668.208 134.958 671.415 134.838C673.044 134.781 674.66 134.459 676.283 134.257C676.333 134.169 676.384 134.093 676.441 134.011C676.676 133.588 677.113 133.166 677.113 132.749C677.155 124.899 677.155 117.047 677.113 109.193C677 108.687 676.796 108.206 676.511 107.773L675.877 107.502H650.328C650.067 108.083 649.884 108.696 649.783 109.325C649.707 111.673 649.738 114.014 649.732 116.361H649.783L649.301 116.614L615.075 116.652C613.807 116.26 613.661 116.961 613.668 117.977C613.668 120.45 613.668 122.924 613.617 125.398V125.347L587.63 125.436L587.085 124.628C587.085 124.319 587.085 123.997 587.085 123.706L587.275 116.551L588.936 116.462L595.756 116.109L595.965 109.054C595.965 108.978 595.965 108.865 595.965 108.82C595.515 108.366 595.097 107.558 594.602 107.558C592.954 107.401 591.262 107.653 589.62 107.464C587.504 107.224 586.87 107.956 587.034 110.045C587.199 112.133 587.719 114.973 586.661 115.932C585.456 117.024 582.667 116.563 580.582 116.45C578.598 116.342 578.085 116.967 578.104 118.93C578.212 129.342 578.148 139.754 578.167 150.159C578.167 151.384 578.326 152.608 576.526 152.57C574.955 152.44 573.378 152.417 571.804 152.501C569.503 152.772 568.768 151.977 568.964 149.686C569.129 147.692 569.598 144.884 568.54 143.849C567.481 142.814 564.667 143.319 562.651 143.477C560.446 143.647 559.92 142.884 559.932 140.744C560.008 127.77 559.932 114.796 559.932 101.822C560.192 98.5724 560.192 98.6671 563.685 98.5472C565.485 98.503 567.278 98.1686 569.078 97.9666C569.379 97.4179 569.593 96.8262 569.712 96.2124C569.896 90.4069 569.883 90.2933 575.613 90.451C577.933 90.5141 578.541 89.82 578.516 87.542C578.402 77.2183 578.478 66.8945 578.459 56.5708C578.407 55.8817 578.299 55.198 578.136 54.5263L578.098 53.8132L578.212 53.1822C580.512 53.3589 582.82 53.4914 585.114 53.7312C586.73 53.9016 587.092 53.2011 587.073 51.7119C587.003 46.3102 587.053 40.877 587.06 35.4438ZM640.744 62.6477L639.787 62.7297H632.695C632.403 63.0516 631.865 63.3608 631.865 63.6952C631.827 66.2193 631.865 68.693 631.922 71.1919L631.693 71.6588L622.687 71.6967C622.687 66.2698 622.687 60.8366 622.757 55.4034C622.757 54.2423 622.516 53.7375 621.197 53.7564C616.298 53.8448 611.392 53.8385 606.493 53.8006C605.301 53.8006 604.794 54.0972 604.813 55.3782C604.885 60.3339 604.902 65.2917 604.864 70.2516C604.864 71.3749 605.225 71.7535 606.36 71.7346C611.817 71.6715 617.268 71.6778 622.725 71.6588C622.725 77.0857 622.795 82.5189 622.725 87.9521C622.725 89.4666 623.156 89.9714 624.626 89.5865H631.269L631.751 89.6686V89.637C631.795 91.915 631.953 94.1931 631.839 96.4648C631.757 98.1244 632.27 98.5851 633.944 98.5661C640.415 98.4715 646.892 98.5661 653.37 98.5661C663.48 98.5661 673.589 98.5219 683.698 98.5661C685.067 98.5661 685.651 98.3453 685.556 96.7866C685.403 94.4392 685.556 92.0728 685.556 89.719C685.676 89.7287 685.797 89.6976 685.898 89.6307L686.912 89.5865H694.036L694.499 89.1764V72.1384C694.499 72.0753 694.562 72.0122 694.549 71.9554C694.523 71.837 694.487 71.7209 694.442 71.6084C699.969 71.6462 705.502 71.6588 711.029 71.7535C712.296 71.7535 712.442 71.1982 712.429 70.1696C712.385 65.2917 712.341 60.4075 712.429 55.5296C712.429 54.0215 711.897 53.6996 710.484 53.7312C705.901 53.8385 701.312 53.9016 696.73 53.7754C694.828 53.7186 694.524 54.4064 694.549 56.0723C694.638 61.2594 694.549 66.4528 694.549 71.6462L691.735 71.7472H690.296C689.454 71.6677 688.607 71.6466 687.761 71.6841C686.151 71.8671 685.562 71.3244 685.651 69.6522C685.771 67.494 685.606 65.317 685.562 63.1462L685.093 62.7297H677.962L676.764 62.6224H676.802C676.802 60.2624 676.72 57.9023 676.802 55.5486C676.802 54.3307 676.612 53.6933 675.142 53.6996C664.316 53.7627 653.491 53.7627 642.665 53.6996C641.435 53.6996 641.004 54.053 641.023 55.3025C641.061 57.7319 640.935 60.1677 640.878 62.5972L640.744 62.6477Z" fill="#F6DF55"/>
<path d="M615.081 197.146C618.554 197.108 622.053 197.039 625.501 197.039C647.697 197.039 669.896 197.039 692.097 197.039C692.73 197.039 693.364 197.102 693.998 197.134C694.15 199.961 694.3 202.792 694.448 205.627C694.664 207.224 695.88 207.028 696.983 207.028C703.702 207.028 710.42 207.028 717.132 207.028C723.376 207.028 722.457 207.766 722.526 201.627V201.393C722.577 198.572 723.084 198.055 725.822 198.042H728.668C731.438 198.042 732.059 197.506 732.008 194.767C731.945 191.246 731.609 187.725 731.584 184.204C731.533 177.761 732.059 178.045 725.607 178.215C723.775 178.259 722.437 177.919 721.537 176.259C721.537 174.688 721.537 173.104 721.537 171.533C722.735 171.293 724.44 172.29 724.897 170.195H729.131L730.316 170.99C730.557 170.245 731.007 169.501 731.007 168.756C731.045 136.548 731.045 104.344 731.007 72.1447C730.915 71.3293 730.73 70.527 730.455 69.7531V65.5189C732.42 65.1655 731.691 63.834 731.495 62.6919C733.396 62.654 735.298 62.6919 737.199 62.5467C738.853 62.3953 739.145 63.0768 739.101 64.5534C738.961 72.7569 738.917 80.9161 738.834 89.1006C738.543 89.8957 738.239 90.6845 737.998 91.4922C738.213 91.6547 738.456 91.7786 738.714 91.8582C739.189 91.1578 739.62 90.4258 740.058 89.7001C742.194 89.7001 744.33 89.7001 746.459 89.6054C747.689 89.536 747.917 90.085 747.892 91.1325C747.841 93.4863 747.86 95.8401 747.847 98.2001L739.608 98.4715C739.302 98.9636 739.087 99.5065 738.974 100.074C738.936 107.994 738.93 115.92 739.006 123.845C739.006 124.432 739.677 125.013 740.039 125.6L740.4 126.363L740.989 125.6H747.163L747.797 126.111L747.835 133.683L747.169 134.093C745.195 134.197 743.217 134.197 741.243 134.093C739.177 133.898 738.708 134.68 738.708 136.617C738.822 148.677 738.834 160.736 738.879 172.788C738.913 182.25 738.94 191.715 738.961 201.185C738.961 202.201 738.847 203.217 738.777 204.233L738.708 205.223C736.668 205.485 734.616 205.629 732.56 205.653C730.658 205.583 729.885 206.063 730.024 208.107C730.145 210.265 730.658 213.156 729.511 214.418C728.516 215.497 725.486 214.746 723.35 214.746C711.631 214.746 699.899 214.702 688.192 214.784C686.367 214.784 685.562 214.367 685.765 212.461C685.854 211.201 685.873 209.937 685.822 208.675C685.822 205.747 685.822 205.747 682.976 205.747H634.565C631.237 205.747 627.91 205.81 624.588 205.709C623.131 205.665 622.585 206.151 622.643 207.602C622.719 209.496 622.643 211.389 622.687 213.282C622.687 214.38 622.281 214.784 621.147 214.784C610.372 214.754 599.597 214.754 588.822 214.784C587.586 214.784 587.104 214.361 587.117 213.168C587.117 211.275 587.066 209.382 587.117 207.489C587.117 206.176 586.654 205.64 585.304 205.722C583.726 205.81 582.135 205.646 580.557 205.785C578.763 205.936 578.155 205.4 578.18 203.494C578.3 193.72 578.269 183.932 578.281 174.164C578.281 172.826 578.243 171.488 578.224 170.144C580.595 170.144 582.959 170.22 585.323 170.144C586.591 170.1 587.149 170.422 587.06 171.823C586.933 173.716 587.104 175.609 587.009 177.471C586.946 178.815 587.415 179.206 588.758 179.193C593.88 179.149 599.007 179.193 604.135 179.244L604.731 179.698C604.731 182.222 604.731 184.734 604.731 187.233C599.571 187.233 594.406 187.188 589.24 187.271C588.518 187.271 587.808 187.902 587.085 188.28L586.965 189.119C585.837 190.382 585.697 195.922 586.749 197.052C586.832 197.14 587.053 197.089 587.206 197.108H587.383L587.529 197.197C589.063 197.348 590.597 197.55 592.13 197.638C594.773 197.79 595.116 198.105 595.128 200.674C595.075 202.009 595.092 203.347 595.179 204.681C595.236 205.192 595.857 205.64 596.219 206.113H596.396L596.554 206.202C597.087 206.504 597.619 207.072 598.158 207.085C602.791 207.154 607.431 207.129 612.102 207.117C614.124 207.117 615.125 206.063 615.125 204.056C615.075 201.683 615.081 199.405 615.081 197.146Z" fill="black"/>
<path d="M559.901 101.822C559.901 114.796 559.989 127.77 559.901 140.744C559.901 142.884 560.414 143.647 562.62 143.477C564.635 143.319 567.437 142.802 568.508 143.849C569.579 144.897 569.097 147.692 568.933 149.686C568.736 151.977 569.471 152.772 571.772 152.501C573.346 152.417 574.923 152.44 576.494 152.57L577.933 153.075C577.971 157.991 577.996 162.9 578.041 167.816C578.041 168.586 578.167 169.349 578.237 170.119C575.949 170.119 573.648 169.993 571.379 170.195C569.376 170.378 568.945 169.564 569.078 167.803C569.199 166.238 569.078 164.648 569.167 163.096C569.256 161.543 568.863 160.963 567.234 161.057C565.111 161.177 562.981 161.057 560.851 161.057L560.389 160.672C560.344 158.628 560.224 156.583 560.287 154.545C560.344 152.848 559.799 152.021 557.98 152.217C556.643 152.336 555.274 152.097 553.949 152.254C551.731 152.519 550.957 151.844 551.002 149.478C551.167 141.678 551.065 133.879 551.072 126.079C551.072 117.649 551.135 109.218 551.072 100.787C551.072 99.0709 551.433 98.3579 553.277 98.5156C555.318 98.6986 557.384 98.6103 559.438 98.6418C559.603 99.702 559.755 100.749 559.901 101.822Z" fill="black"/>
<path d="M685.701 8.72587C684.839 8.77635 683.971 8.87101 683.109 8.87101L624.759 8.83315C624.062 8.83315 623.359 8.94042 622.655 8.99721C622.693 6.71287 622.852 4.42222 622.731 2.1505C622.649 0.453019 623.219 0.0491573 624.855 0.0617779C640.447 0.124881 656.038 0.112261 671.624 0.112261C675.345 0.112261 679.072 0.162743 682.786 0.0112952C684.789 -0.0707391 685.809 0.244778 685.549 2.61115C685.321 4.61784 685.632 6.68763 685.701 8.72587Z" fill="black"/>
<path d="M747.911 133.652L747.873 126.079L747.239 125.568H740.096C739.734 124.981 739.069 124.401 739.063 123.814C738.987 115.888 738.993 107.962 739.031 100.043C739.144 99.4749 739.359 98.932 739.665 98.4399L747.987 98.6355L747.917 98.5914L748.221 99.0962V102.409C748.177 103.11 748.101 103.81 748.095 104.51C748.095 107.413 748.095 107.413 751.042 107.161H757.196V107.337C757.196 115.509 757.069 123.681 757.196 131.853C757.234 134.043 756.531 134.541 754.534 134.377C752.74 134.245 750.915 134.428 749.109 134.472L747.911 133.652Z" fill="#F6DF55"/>
<path d="M559.901 101.822C559.742 100.749 559.59 99.683 559.432 98.6103C559.634 96.6352 559.932 94.66 560.021 92.6786C560.154 89.6117 560.091 89.637 563.101 89.5676C565.041 89.5171 567.608 90.0535 568.723 89.0438C569.699 88.1541 569.11 85.4848 569.11 83.6043C569.11 74.3786 569.173 65.1466 569.11 55.9209C569.11 54.135 569.573 53.5734 571.373 53.7123C573.414 53.87 575.486 53.7123 577.546 53.7123L578.091 53.8321L578.129 54.5452C578.091 55.6432 578.022 56.7349 578.022 57.8329C578.022 67.7275 577.965 77.6221 578.06 87.4915C578.06 89.2962 577.553 89.8137 575.81 89.6622C574.067 89.5108 572.343 89.7001 570.612 89.6117C569.427 89.5486 568.914 89.8389 568.977 91.1325C569.097 93.4043 569.053 95.6823 569.072 97.9603C567.272 98.1623 565.478 98.4967 563.678 98.5409C560.173 98.6418 560.173 98.5724 559.901 101.822Z" fill="black"/>
<path d="M749.128 134.522C750.934 134.478 752.759 134.295 754.553 134.428C756.55 134.573 757.253 134.074 757.215 131.904C757.076 123.732 757.215 115.56 757.215 107.388C759.668 107.388 762.127 107.388 764.568 107.546C765.056 107.546 765.886 108.347 765.886 108.808C765.981 119.756 765.981 130.705 766 141.659C766 142.638 765.772 143.287 764.549 143.269C759.415 143.193 754.274 143.187 749.14 143.155L748.215 140.808C748.215 139.23 748.215 137.652 748.215 136.068L749.128 134.522Z" fill="black"/>
<path d="M721.341 44.2278C718.622 44.3288 715.896 44.4739 713.171 44.4802C712.911 44.4802 712.423 43.5968 712.423 43.1235C712.423 37.6335 712.48 32.1498 712.525 26.6598C714.724 26.6598 716.961 26.8113 719.123 26.622C721.087 26.4516 721.423 27.2152 721.379 28.9757C721.265 34.0745 721.341 39.1228 721.341 44.2278Z" fill="black"/>
<path d="M587.06 35.4438C587.06 40.877 587.003 46.3102 587.06 51.7434C587.06 53.2327 586.718 53.9331 585.101 53.7627C582.807 53.5229 580.5 53.3904 578.199 53.2137C578.199 47.9572 578.275 42.7007 578.199 37.4379C578.199 35.9928 578.554 35.5448 580.012 35.5448C582.351 35.6268 584.708 35.4943 587.06 35.4438Z" fill="black"/>
<path d="M622.7 8.93411C622.7 11.3636 622.662 13.7994 622.769 16.2225C622.826 17.5162 622.326 17.7875 621.134 17.7686C615.62 17.6992 610.106 17.7118 604.591 17.6992H604.629L604.667 17.5919C604.731 15.3959 604.858 13.1747 604.832 11.0039C604.832 9.4137 604.832 8.85208 606.512 8.88994C611.734 9.00352 617.477 8.92149 622.7 8.93411Z" fill="black"/>
<path d="M703.524 17.7244C698.188 17.7244 692.851 17.6739 687.508 17.7244C686.094 17.7244 685.53 17.3584 685.606 15.8944C685.771 13.5659 685.803 11.2311 685.885 8.90256C691.165 8.90256 696.438 8.99721 701.731 8.90256C703.093 8.90256 703.505 9.2938 703.467 10.6127C703.417 13.0169 703.505 15.3707 703.524 17.7244Z" fill="black"/>
<path d="M730.31 62.2943C727.73 62.37 725.144 62.5278 722.564 62.4394C722.152 62.4394 721.442 61.3288 721.436 60.7293C721.379 55.3214 721.436 49.9071 721.474 44.4992C723.75 44.5686 726.031 44.739 728.3 44.6569C729.803 44.6064 730.291 44.9598 730.265 46.55C730.176 51.8002 730.278 57.0504 730.31 62.2943Z" fill="black"/>
<path d="M712.569 26.7166C710.034 26.6598 707.543 26.5463 705.026 26.5841C703.759 26.5841 703.379 26.1866 703.429 24.9561C703.518 22.5329 703.474 20.1034 703.486 17.6739C705.933 17.7244 708.386 17.8317 710.839 17.7875C712.062 17.7875 712.518 18.122 712.487 19.3903C712.436 21.8324 712.537 24.2745 712.569 26.7166Z" fill="black"/>
<path d="M596.073 26.6662C596.073 29.0956 595.952 31.5314 596.003 33.9546C596.003 35.2167 595.572 35.6205 594.355 35.5764C591.915 35.4943 589.468 35.5069 587.028 35.4817C587.028 33.1595 587.168 30.831 587.028 28.5403C586.939 26.9564 587.465 26.5147 588.999 26.603C591.363 26.7166 593.721 26.6472 596.073 26.6662Z" fill="black"/>
<path d="M604.591 17.6992C604.674 20.2549 604.826 22.8105 604.769 25.3662C604.769 25.7701 603.824 26.4516 603.279 26.4895C600.871 26.6725 598.443 26.6598 596.022 26.7229C596.022 24.2998 596.06 21.8766 595.946 19.4598C595.883 18.0904 596.39 17.7244 597.702 17.756C599.971 17.8128 602.246 17.6992 604.522 17.655L604.629 17.7055L604.591 17.6992Z" fill="black"/>
<path d="M748.209 102.428V99.1151L748.652 98.6418C750.687 98.6418 752.728 98.6418 754.762 98.5346C756.341 98.4462 756.987 98.9006 756.886 100.617C756.753 102.788 756.949 104.984 757 107.167H751.023C751.021 106.199 750.759 105.249 750.264 104.416C749.769 103.583 749.06 102.896 748.209 102.428Z" fill="black"/>
<path d="M740.096 89.6875C739.658 90.4132 739.227 91.1452 738.752 91.8456C738.494 91.766 738.251 91.6421 738.036 91.4796C738.277 90.6719 738.581 89.8831 738.872 89.088L740.096 89.6875Z" fill="black"/>
<path d="M747.98 98.6545L739.658 98.4399L747.898 98.1686C747.955 98.2607 748.004 98.3579 748.044 98.4588C748.05 98.5283 747.999 98.5914 747.98 98.6545Z" fill="black"/>
<path d="M731.539 62.6792C731.736 63.8214 732.465 65.1529 730.5 65.5063V62.4584L731.539 62.6792Z" fill="black"/>
<path d="M749.128 134.522L748.228 136.031C747.904 135.4 747.594 134.718 747.245 134.062L747.911 133.652L749.128 134.522Z" fill="black"/>
<path d="M748.202 140.77L749.128 143.117C747.309 142.928 748.304 141.634 748.202 140.77Z" fill="black"/>
<path d="M748.659 98.6418L748.215 99.1151L747.911 98.6103L748.659 98.6418Z" fill="black"/>
<path d="M604.629 17.7055L604.522 17.655L604.547 17.5162L604.667 17.5982L604.629 17.7055Z" fill="#F6DF55"/>
<path d="M578.079 53.8132L577.534 53.6933L578.167 53.2011L578.079 53.8132Z" fill="#9F9F9F"/>
<path d="M607 161.089H605.574C605.4 158.413 605.234 155.74 605.073 153.069L604.648 152.236C603.963 151.96 603.245 151.773 602.512 151.68C595.578 151.68 588.651 151.825 581.717 151.819C580.449 151.819 578.928 151.895 578.934 149.819C578.934 139.52 578.934 129.215 579.023 118.898C579.116 118.501 579.311 118.135 579.587 117.835C579.863 117.534 580.213 117.309 580.601 117.182C582.719 117.202 584.835 117.332 586.939 117.573C586.996 119.611 587.06 121.656 587.117 123.694V124.615L587.662 125.423L613.649 125.335C613.72 128.305 613.788 131.277 613.851 134.251C613.915 137.225 613.915 140.198 613.851 143.168C613.813 145.446 613.851 147.736 613.693 150.002C613.535 151.939 614.162 152.526 616.159 152.526C624.145 152.431 632.131 152.526 640.123 152.526L640.801 152.602L640.649 160.635L640.256 161.07H637.861C637.213 160.861 636.547 160.717 635.87 160.641C626.9 160.616 617.931 160.616 608.965 160.641C608.296 160.722 607.637 160.872 607 161.089ZM596.028 134.257C593.569 134.257 591.11 134.169 588.67 134.32C588.317 134.397 587.989 134.561 587.716 134.797C587.444 135.033 587.235 135.333 587.111 135.671C586.936 137.792 586.936 139.923 587.111 142.044C587.225 142.382 587.424 142.685 587.69 142.925C587.955 143.164 588.277 143.333 588.625 143.414C593.531 143.515 598.443 143.414 603.349 143.483C604.617 143.483 604.997 142.991 604.953 141.798C604.883 139.905 604.864 138.012 604.953 136.119C605.016 134.724 604.61 134.119 603.095 134.188C600.75 134.333 598.367 134.251 596.028 134.257Z" fill="black"/>
<path d="M694.448 72.1447V89.1827L693.985 89.5928H686.861C686.861 87.2391 686.734 84.8727 686.893 82.5252C687.039 80.3419 686.259 79.5215 684.053 79.7045C681.005 79.9569 677.937 80.1715 674.882 80.1462C667.004 80.0895 659.132 79.856 651.259 79.7613C646.189 79.6982 641.074 79.6919 635.984 79.7613C634.717 79.7613 633.449 80.3166 632.181 80.6132H632.137L631.712 81.0991C631.556 83.9177 631.396 86.7405 631.231 89.5676H628.391C627.757 88.3055 627.124 88.3055 626.49 89.5676H624.588C624.271 88.6273 623.701 87.6745 623.676 86.7406C623.574 82.6893 623.676 78.6381 623.625 74.5868C623.625 72.8452 624.259 72.0627 626.16 72.0627C628.007 72.0159 629.85 71.8684 631.681 71.621L631.909 71.154C632.243 70.5388 632.482 69.8773 632.619 69.1915C632.714 67.0334 632.67 64.8626 632.682 62.6919H639.762C639.762 64.932 639.699 67.1722 639.819 69.4061C639.819 70.0371 640.453 70.5735 640.757 71.1603C640.789 71.2006 640.807 71.2507 640.807 71.3023C640.807 71.3539 640.789 71.404 640.757 71.4443C641.296 71.8229 641.835 72.5234 642.38 72.5234C653.465 72.5928 664.563 72.5549 675.643 72.5928C677.36 72.5928 677.829 71.8229 677.785 70.2769C677.721 67.7528 677.785 65.2286 677.785 62.7045H684.915L685.384 63.121C685.429 65.2917 685.594 67.4688 685.473 69.6269C685.384 71.2992 685.974 71.8418 687.584 71.6588C688.429 71.6214 689.276 71.6424 690.119 71.722H691.558L694.448 72.1447Z" fill="black"/>
<path d="M685.847 89.6054C685.746 89.6724 685.626 89.7035 685.505 89.6938C684.636 89.6938 683.768 89.6433 682.9 89.6433H631.681V89.6749V81.1307L632.105 80.6448H632.15C641.34 80.6448 650.531 80.6448 659.721 80.6448C667.644 80.6448 675.567 80.6763 683.483 80.5943C685.156 80.5943 685.682 81.1243 685.638 82.7587C685.606 85.0494 685.777 87.34 685.847 89.6054Z" fill="#D53335"/>
<path d="M631.681 89.6496H682.9C683.768 89.6496 684.636 89.6496 685.505 89.7001C685.505 92.0539 685.334 94.4202 685.505 96.7677C685.6 98.3263 685.017 98.5535 683.648 98.5472C673.507 98.5093 663.429 98.5472 653.319 98.5472C646.842 98.5472 640.364 98.4715 633.893 98.5472C632.22 98.5472 631.706 98.1055 631.789 96.4458C631.884 94.2057 631.725 91.9277 631.681 89.6496Z" fill="black"/>
<path d="M640.136 152.538C632.143 152.538 624.157 152.425 616.171 152.538C614.175 152.538 613.547 151.97 613.706 150.014C613.889 147.749 613.826 145.458 613.864 143.18C622.104 143.18 630.299 143.13 638.513 143.18C640.009 143.18 641.049 142.959 640.751 141.161C640.428 139.192 641.385 138.637 643.172 138.864C643.805 138.902 644.44 138.902 645.073 138.864C649.757 138.864 649.757 138.864 649.789 134.131C651.919 134.131 654.055 134.011 656.172 134.169C658.181 134.327 659.144 133.79 658.846 131.645C658.767 130.47 658.767 129.292 658.846 128.117C658.846 125.751 659.702 125 662.13 125.196L667.745 125.669V134.175C667.715 134.165 667.683 134.161 667.652 134.163C667.62 134.166 667.589 134.176 667.562 134.191C667.534 134.207 667.51 134.228 667.492 134.254C667.473 134.279 667.46 134.308 667.454 134.339C665.254 134.377 663.017 134.503 660.843 134.421C659.353 134.365 658.701 134.743 658.789 136.365C658.922 138.712 658.834 141.073 658.84 143.426L658.929 143.508L658.358 143.641C653.098 143.597 647.837 143.584 642.582 143.496C641.378 143.496 640.859 143.868 640.903 145.092C640.973 147.124 640.973 149.156 640.998 151.182L640.136 152.538Z" fill="#9F9F9F"/>
<path d="M667.72 134.156V125.65C667.72 123.296 667.663 120.936 667.821 118.595C667.942 116.847 667.378 116.26 665.59 116.292C660.31 116.405 655.031 116.355 649.745 116.368C649.745 114.02 649.745 111.679 649.795 109.332C649.897 108.703 650.08 108.09 650.34 107.508L650.543 107.59L650.74 107.508H675.89L676.524 107.779L676.448 134.024C676.39 134.106 676.34 134.182 676.289 134.27L667.72 134.156Z" fill="black"/>
<path d="M640.814 71.4822C640.847 71.4419 640.864 71.3918 640.864 71.3402C640.864 71.2886 640.847 71.2385 640.814 71.1982L640.776 62.6477H640.744H676.701H676.663C676.726 64.7553 676.663 66.8819 676.879 68.958C677.094 71.0341 676.435 71.7977 674.178 71.7598C665.108 71.6273 656.045 71.7156 646.975 71.6904C644.896 71.6967 642.855 71.5579 640.814 71.4822Z" fill="#D53335"/>
<path d="M613.851 134.264C613.784 131.289 613.716 128.317 613.649 125.347V125.398L614.625 125.183H649.808C649.808 128.166 649.808 131.155 649.808 134.15H646.005L613.851 134.264Z" fill="#9F9F9F"/>
<path d="M622.725 71.6652C617.268 71.6652 611.817 71.6652 606.36 71.7409C605.225 71.7409 604.858 71.3812 604.864 70.258C604.893 65.298 604.877 60.3402 604.813 55.3845C604.813 54.1224 605.301 53.7943 606.493 53.8069C611.392 53.8448 616.298 53.8511 621.197 53.7627C622.516 53.7627 622.769 54.2486 622.757 55.4097C622.693 60.8429 622.7 66.2761 622.687 71.703L622.725 71.6652Z" fill="black"/>
<path d="M694.442 71.6525C694.442 66.4591 694.562 61.2657 694.442 56.0786C694.442 54.3875 694.74 53.7249 696.622 53.7817C701.205 53.9079 705.793 53.8448 710.376 53.7375C711.789 53.7375 712.347 54.0278 712.322 55.5359C712.258 60.4138 712.322 65.298 712.322 70.1759C712.322 71.2045 712.163 71.7787 710.921 71.7598C705.394 71.6652 699.861 71.6525 694.334 71.6147L694.442 71.6525Z" fill="black"/>
<path d="M676.669 62.6729H640.713C640.77 60.2435 640.897 57.8077 640.858 55.3782C640.858 54.1161 641.27 53.7691 642.5 53.7754C653.326 53.8048 664.151 53.8048 674.977 53.7754C676.448 53.7754 676.657 54.4064 676.638 55.6243C676.587 57.9528 676.65 60.3129 676.669 62.6729Z" fill="black"/>
<path d="M587.51 197.108L587.364 197.02H587.187L586.946 189.031L587.066 188.192L604.902 188.091L604.864 188.059C604.927 190.243 605.143 192.432 605.016 194.603C604.902 196.616 605.65 197.184 607.551 197.064C609.579 196.932 611.627 197.064 613.668 197.064V197.033C613.668 199.216 613.668 201.406 613.788 203.589C613.902 205.406 613.268 206.063 611.386 206.031C606.442 205.943 601.498 206.031 596.554 206.082L596.396 205.993H596.219C596.142 203.646 595.997 201.292 596.022 198.938C596.022 197.556 595.648 196.913 594.152 196.988C591.928 197.121 589.69 197.083 587.51 197.108Z" fill="#D53335"/>
<path d="M649.783 125.177H614.599C614.885 122.343 613.104 119.384 615.081 116.645L649.307 116.607L649.726 117.087L649.783 125.177Z" fill="black"/>
<path d="M649.783 125.177L649.719 117.093L649.783 116.361H649.732C655.012 116.361 660.291 116.399 665.577 116.286C667.365 116.286 667.929 116.841 667.809 118.589C667.65 120.93 667.732 123.29 667.707 125.644L662.091 125.17C659.664 124.975 658.815 125.726 658.808 128.092C658.729 129.267 658.729 130.445 658.808 131.62C659.106 133.797 658.143 134.333 656.134 134.144C654.017 133.986 651.881 134.106 649.751 134.106C649.772 131.14 649.783 128.164 649.783 125.177Z" fill="#828282"/>
<path d="M586.927 117.585C584.822 117.345 582.707 117.214 580.589 117.194C580.2 117.322 579.851 117.547 579.574 117.847C579.298 118.148 579.104 118.514 579.01 118.911C578.909 129.209 578.953 139.514 578.922 149.831C578.922 151.907 580.462 151.832 581.704 151.832C588.638 151.832 595.566 151.718 602.5 151.693C603.233 151.786 603.951 151.972 604.636 152.248C596.573 152.286 588.505 152.305 580.443 152.393C579.583 152.517 578.743 152.752 577.945 153.094L576.507 152.589C578.307 152.627 578.155 151.403 578.148 150.178C578.148 139.773 578.193 129.354 578.085 118.949C578.085 116.986 578.579 116.361 580.563 116.469C582.648 116.576 585.437 117.043 586.642 115.951C587.7 114.992 587.18 112.083 587.015 110.064C586.851 108.044 587.484 107.243 589.601 107.483C591.243 107.672 592.935 107.42 594.583 107.577C595.078 107.628 595.496 108.41 595.946 108.839C595.984 108.884 595.946 108.997 595.946 109.073L595.756 116.109L588.955 116.437L587.294 116.525L586.927 117.585Z" fill="black"/>
<path d="M640.973 151.163C640.973 149.137 640.973 147.105 640.878 145.073C640.833 143.849 641.353 143.458 642.557 143.477C647.812 143.565 653.072 143.578 658.333 143.622C658.333 146.607 658.688 149.667 656.431 152.147H642.171L640.973 151.163Z" fill="black"/>
<path d="M695.418 188.135H711.092C711.257 190.079 711.396 192.022 711.58 193.966C711.707 195.329 711.067 195.739 709.767 195.707C707.164 195.541 704.553 195.558 701.952 195.758C699.246 196.086 696.711 196.389 694.575 194.262C694.575 192.533 694.575 190.798 694.575 189.069L695.418 188.135Z" fill="black"/>
<path d="M730.487 69.7405C730.761 70.5143 730.946 71.3167 731.038 72.1321C731.072 104.336 731.072 136.54 731.038 168.743C731.038 169.488 730.588 170.233 730.348 170.977L729.131 170.182C730.81 170.005 730.221 168.699 730.221 167.822C730.246 151.352 730.246 134.88 730.221 118.406C730.221 103.042 730.231 87.6745 730.253 72.3025C730.291 71.4506 730.398 70.5924 730.487 69.7405Z" fill="black"/>
<path d="M721.525 176.246C722.399 177.906 723.762 178.247 725.594 178.203C732.046 178.032 731.52 177.748 731.571 184.191C731.571 187.712 731.932 191.233 731.996 194.755C732.046 197.493 731.425 198.017 728.655 198.03H725.809C723.071 198.03 722.564 198.56 722.514 201.38V201.614C722.444 207.754 723.363 206.99 717.12 207.016C710.408 207.016 703.689 207.016 696.971 207.016C695.868 207.016 694.651 207.211 694.435 205.615L694.518 205.552C695.038 205.741 695.578 205.872 696.128 205.943C704.044 205.981 711.973 205.974 719.883 206.012C721.151 206.012 721.537 205.381 721.525 204.258C721.525 202.523 721.614 200.781 721.525 199.052C721.423 197.468 722.089 196.963 723.597 197.039C725.252 197.127 726.919 197.007 728.579 197.07C729.758 197.108 730.329 196.723 730.335 195.474C730.369 190.586 730.438 185.699 730.544 180.815C730.544 179.496 730.024 178.998 728.693 179.042C726.323 179.118 723.946 179.073 721.569 179.08L721.493 178.972C721.48 178.07 721.525 177.161 721.525 176.246Z" fill="black"/>
<path d="M712.474 188.047C712.442 185.523 712.474 182.998 712.366 180.518C712.322 179.338 712.81 179.061 713.887 179.073C716.423 179.073 718.958 179.036 721.493 179.01L721.569 179.118C721.569 181.484 721.461 183.844 721.487 186.21C721.487 187.517 720.992 188.04 719.661 188.021C717.285 187.984 714.914 188.072 712.537 188.11L712.474 188.047Z" fill="black"/>
<path d="M613.68 197.083C611.639 197.083 609.592 196.932 607.564 197.083C605.662 197.203 604.889 196.635 605.029 194.622C605.155 192.451 604.94 190.262 604.877 188.078C607.31 188.078 609.751 188.116 612.178 188.021C613.408 187.977 613.845 188.343 613.794 189.599C613.661 192.079 613.706 194.578 613.68 197.083Z" fill="black"/>
<path d="M658.815 143.407C658.815 141.054 658.897 138.694 658.764 136.346C658.675 134.724 659.328 134.346 660.818 134.403C663.017 134.485 665.254 134.358 667.428 134.32L667.561 143.079L658.815 143.407Z" fill="black"/>
<path d="M685.847 89.6054C685.777 87.3274 685.606 85.0368 685.67 82.7587C685.714 81.1244 685.188 80.5754 683.515 80.5943C675.598 80.6763 667.669 80.6511 659.753 80.6448C650.562 80.6448 641.372 80.6448 632.181 80.6448C633.449 80.3482 634.717 79.8181 635.984 79.7929C641.055 79.6919 646.17 79.6982 651.259 79.7929C659.132 79.8875 667.004 80.121 674.882 80.1778C677.937 80.1778 681.005 79.9885 684.053 79.7361C686.253 79.5531 687.039 80.3671 686.893 82.5568C686.734 84.9043 686.861 87.2706 686.861 89.6244L685.847 89.6054Z" fill="black"/>
<path d="M640.814 71.4822C642.855 71.5579 644.896 71.6967 646.943 71.703C656.013 71.703 665.077 71.6399 674.147 71.7724C676.403 71.8103 677.043 71.072 676.847 68.9706C676.65 66.8693 676.695 64.749 676.631 62.6603L677.829 62.7676C677.829 65.2917 677.779 67.8159 677.829 70.34C677.874 71.886 677.405 72.6685 675.687 72.6559C664.601 72.618 653.503 72.6559 642.424 72.5865C641.892 72.5675 641.353 71.8608 640.814 71.4822Z" fill="black"/>
<path d="M694.575 194.237C696.711 196.364 699.246 196.061 701.952 195.733C704.553 195.533 707.164 195.516 709.767 195.682C711.067 195.682 711.707 195.304 711.58 193.941C711.396 191.997 711.257 190.053 711.092 188.11L712.474 188.015L712.512 188.078C712.512 190.35 712.372 192.628 712.461 194.893C712.525 196.547 711.922 197.07 710.274 197.052C705.001 196.982 699.721 197.052 694.429 197.052L694.575 194.237Z" fill="black"/>
<path d="M569.059 97.9666C569.059 95.6886 569.059 93.4106 568.964 91.1389C568.901 89.8452 569.414 89.555 570.6 89.6181C572.33 89.7064 574.073 89.5171 575.797 89.6686C577.521 89.82 578.06 89.3026 578.047 87.4978C577.952 77.6032 578.003 67.7086 578.009 57.8392C578.009 56.7412 578.079 55.6495 578.117 54.5515C578.28 55.2232 578.388 55.907 578.44 56.5961C578.44 66.9198 578.383 77.2435 578.497 87.5672C578.497 89.8263 577.914 90.5394 575.594 90.4763C569.89 90.3185 569.89 90.4321 569.693 96.2376C569.571 96.8427 569.358 97.4258 569.059 97.9666Z" fill="#9F9F9F"/>
<path d="M596.535 206.101C601.479 206.069 606.423 205.962 611.367 206.05C613.268 206.082 613.902 205.419 613.769 203.608C613.63 201.425 613.68 199.235 613.649 197.052L615.081 197.146C615.081 199.418 615.081 201.683 615.081 203.955C615.081 205.962 614.08 207.009 612.058 207.016C607.418 207.016 602.779 207.053 598.114 206.984C597.6 206.978 597.068 206.403 596.535 206.101Z" fill="black"/>
<path d="M607 161.089C607.646 160.877 608.313 160.733 608.99 160.66C617.956 160.635 626.925 160.635 635.896 160.66C636.572 160.736 637.239 160.88 637.886 161.089H607Z" fill="black"/>
<path d="M676.441 133.992L676.517 107.748C676.802 108.181 677.006 108.662 677.119 109.167C677.157 117.018 677.157 124.87 677.119 132.724C677.113 133.147 676.676 133.57 676.441 133.992Z" fill="#828282"/>
<path d="M631.693 71.6652C629.863 71.9126 628.02 72.0601 626.173 72.1069C624.271 72.069 623.638 72.8704 623.638 74.631C623.638 78.6823 623.587 82.7335 623.688 86.7847C623.688 87.7313 624.284 88.6778 624.601 89.6118C623.156 89.9967 622.7 89.4919 622.7 87.9774C622.782 82.5442 622.7 77.111 622.7 71.6841L622.662 71.722L631.693 71.6652Z" fill="black"/>
<path d="M604.902 188.091L587.079 188.198C587.801 187.845 588.511 187.201 589.234 187.188C594.399 187.106 599.565 187.151 604.724 187.151L604.902 188.091Z" fill="black"/>
<path d="M667.561 143.079L667.428 134.32C667.435 134.29 667.448 134.26 667.466 134.235C667.485 134.209 667.509 134.188 667.536 134.172C667.564 134.157 667.595 134.147 667.626 134.145C667.658 134.142 667.69 134.146 667.72 134.156L676.283 134.238C674.66 134.44 673.044 134.762 671.415 134.819C668.208 134.939 668.246 134.92 668.119 138.176C668.068 139.817 667.758 141.445 667.561 143.079Z" fill="#828282"/>
<path d="M632.695 62.736C632.695 64.9068 632.727 67.0775 632.632 69.2357C632.495 69.9215 632.255 70.583 631.922 71.1982C631.922 68.6741 631.827 66.2004 631.865 63.7015C631.865 63.3734 632.403 63.0579 632.695 62.736Z" fill="black"/>
<path d="M640.744 62.6477L640.782 71.1982C640.453 70.6113 639.87 70.0434 639.844 69.4439C639.724 67.2101 639.794 64.9699 639.787 62.7297L640.744 62.6477Z" fill="black"/>
<path d="M605.073 153.062C605.238 155.738 605.405 158.411 605.574 161.083C605.276 160.551 605.062 159.976 604.94 159.379C604.94 157.277 605.029 155.17 605.073 153.062Z" fill="black"/>
<path d="M656.431 152.147C658.688 149.667 658.333 146.607 658.333 143.622L658.903 143.489C658.859 145.831 658.903 148.184 658.732 150.519C658.694 151.15 658.174 151.705 657.877 152.292H657.357L656.431 152.147Z" fill="black"/>
<path d="M615.081 116.652C613.104 119.39 614.885 122.331 614.599 125.183L613.623 125.398C613.623 122.924 613.693 120.45 613.674 117.977C613.668 116.961 613.813 116.26 615.081 116.652Z" fill="black"/>
<path d="M724.89 170.182C724.434 172.277 722.729 171.28 721.531 171.52C721.797 171.053 721.994 170.258 722.355 170.17C723.197 170.07 724.049 170.074 724.89 170.182Z" fill="black"/>
<path d="M631.712 81.1307V89.6812L631.231 89.5991C631.391 86.7805 631.552 83.9577 631.712 81.1307Z" fill="black"/>
<path d="M694.429 205.621C694.277 202.786 694.127 199.954 693.979 197.127L694.461 197.089C694.461 199.916 694.482 202.746 694.524 205.577L694.429 205.621Z" fill="black"/>
<path d="M586.927 117.585L587.294 116.551L587.104 123.681C587.047 121.668 586.984 119.624 586.927 117.585Z" fill="#828282"/>
<path d="M640.973 151.163L642.171 152.179L640.814 152.614L640.136 152.538L640.973 151.163Z" fill="black"/>
<path d="M626.452 89.6054C627.09 88.3434 627.724 88.3434 628.353 89.6054H626.452Z" fill="black"/>
<path d="M694.448 72.1447L691.627 71.7535L694.442 71.6525L694.391 71.6147C694.436 71.7272 694.472 71.8433 694.499 71.9617C694.511 72.0185 694.467 72.0816 694.448 72.1447Z" fill="black"/>
<path d="M650.727 107.508L650.531 107.59L650.328 107.508H650.727Z" fill="#828282"/>
<path d="M649.783 116.361L649.719 117.093L649.301 116.614L649.783 116.361Z" fill="black"/>
<path d="M587.51 197.108C589.716 197.108 591.947 197.108 594.133 197.02C595.629 196.944 596.035 197.588 596.003 198.97C596.003 201.324 596.123 203.677 596.2 206.025C595.838 205.552 595.217 205.104 595.16 204.592C595.073 203.258 595.056 201.921 595.109 200.585C595.109 198.017 594.754 197.701 592.111 197.55C590.578 197.462 589.056 197.26 587.51 197.108Z" fill="black"/>
<path d="M586.946 189.037L587.187 197.026C587.034 197.026 586.813 197.026 586.73 196.969C585.659 195.84 585.818 190.281 586.946 189.037Z" fill="black"/>
<path d="M740.096 125.574H741.046L740.457 126.338L740.096 125.574Z" fill="black"/>
<path d="M748.209 102.428C749.063 102.897 749.775 103.584 750.271 104.42C750.767 105.256 751.029 106.209 751.029 107.18C748.069 107.432 748.063 107.432 748.082 104.529C748.088 103.829 748.145 103.128 748.209 102.428Z" fill="black"/>
<path d="M613.851 134.264L645.999 134.15H649.802C649.77 138.883 649.77 138.883 645.086 138.883C644.453 138.921 643.818 138.921 643.185 138.883C641.416 138.668 640.44 139.211 640.763 141.18C641.055 142.978 640.022 143.205 638.526 143.199C630.286 143.161 622.091 143.199 613.877 143.199C613.864 140.212 613.856 137.234 613.851 134.264Z" fill="#828282"/>
<path d="M596.028 134.251C598.399 134.251 600.782 134.333 603.153 134.22C604.667 134.15 605.054 134.756 605.01 136.15C604.921 138.044 604.94 139.937 605.01 141.83C605.054 143.022 604.68 143.527 603.406 143.515C598.5 143.47 593.588 143.546 588.682 143.445C588.331 143.365 588.006 143.197 587.738 142.956C587.471 142.715 587.27 142.41 587.155 142.07C586.981 139.949 586.981 137.817 587.155 135.696C587.273 135.358 587.475 135.055 587.742 134.814C588.009 134.574 588.332 134.404 588.682 134.32C591.078 134.169 593.537 134.257 596.028 134.251Z" fill="#828282"/>
<path d="M694.511 205.558C694.511 202.731 694.49 199.902 694.448 197.07C699.721 197.07 705.001 196.982 710.294 197.07C711.941 197.07 712.544 196.566 712.48 194.912C712.391 192.647 712.48 190.369 712.531 188.097C714.908 188.059 717.278 187.971 719.655 188.009C720.986 188.009 721.493 187.504 721.48 186.198C721.48 183.831 721.531 181.471 721.563 179.105C723.94 179.105 726.316 179.143 728.687 179.067C730.018 179.023 730.588 179.521 730.538 180.84C730.436 185.724 730.367 190.611 730.329 195.499C730.329 196.761 729.752 197.134 728.573 197.096C726.912 197.033 725.245 197.153 723.591 197.064C722.083 196.988 721.417 197.493 721.518 199.077C721.626 200.806 721.518 202.548 721.518 204.283C721.518 205.413 721.151 206.044 719.877 206.037C711.96 206 704.031 206.006 696.121 205.968C695.571 205.891 695.031 205.754 694.511 205.558Z" fill="#D53335"/>
<mask id="path-2-outside-1_4923_50" maskUnits="userSpaceOnUse" x="0" y="5" width="516" height="222" fill="black">
<rect fill="white" y="5" width="516" height="222"/>
<path d="M136 141.4V167H97.6V141.4H84.8V167H72V179.8H20.8V167H8V115.8H33.6V154.2H59.2V115.8H72V103H110.4V115.8H123.2V141.4H136ZM20.8 218.2V192.6H72V218.2H20.8ZM123.25 167V141.4H161.65V167H123.25ZM148.875 167V141.4H187.275V167H148.875ZM174.5 167V141.4H212.9V167H174.5ZM225.725 90.2V64.6H251.325V90.2H225.725ZM200.125 141.4H225.725V103H251.325V154.2H238.525V167H200.125V141.4ZM302.525 115.8V192.6H289.725V205.4H264.125V179.8H276.925V115.8H302.525ZM328.175 51.8H353.775V77.4H328.175V51.8ZM379.375 115.8V141.4H392.175V167H315.375V141.4H353.775V115.8H328.175V90.2H366.575V115.8H379.375ZM456.175 103V128.6H430.575V115.8H417.775V141.4H443.375V167H379.375V141.4H392.175V103H404.975V90.2H443.375V103H456.175ZM456.2 39H469V13.4H507.4V39H494.6V51.8H456.2V39ZM494.6 167H469V64.6H494.6V167Z"/>
</mask>
<path d="M136 141.4V167H97.6V141.4H84.8V167H72V179.8H20.8V167H8V115.8H33.6V154.2H59.2V115.8H72V103H110.4V115.8H123.2V141.4H136ZM20.8 218.2V192.6H72V218.2H20.8ZM123.25 167V141.4H161.65V167H123.25ZM148.875 167V141.4H187.275V167H148.875ZM174.5 167V141.4H212.9V167H174.5ZM225.725 90.2V64.6H251.325V90.2H225.725ZM200.125 141.4H225.725V103H251.325V154.2H238.525V167H200.125V141.4ZM302.525 115.8V192.6H289.725V205.4H264.125V179.8H276.925V115.8H302.525ZM328.175 51.8H353.775V77.4H328.175V51.8ZM379.375 115.8V141.4H392.175V167H315.375V141.4H353.775V115.8H328.175V90.2H366.575V115.8H379.375ZM456.175 103V128.6H430.575V115.8H417.775V141.4H443.375V167H379.375V141.4H392.175V103H404.975V90.2H443.375V103H456.175ZM456.2 39H469V13.4H507.4V39H494.6V51.8H456.2V39ZM494.6 167H469V64.6H494.6V167Z" fill="#F6DF55"/>
<path d="M136 141.4H144V133.4H136V141.4ZM136 167V175H144V167H136ZM97.6 167H89.6V175H97.6V167ZM97.6 141.4H105.6V133.4H97.6V141.4ZM84.8 141.4V133.4H76.8V141.4H84.8ZM84.8 167V175H92.8V167H84.8ZM72 167V159H64V167H72ZM72 179.8V187.8H80V179.8H72ZM20.8 179.8H12.8V187.8H20.8V179.8ZM20.8 167H28.8V159H20.8V167ZM8 167H0V175H8V167ZM8 115.8V107.8H0V115.8H8ZM33.6 115.8H41.6V107.8H33.6V115.8ZM33.6 154.2H25.6V162.2H33.6V154.2ZM59.2 154.2V162.2H67.2V154.2H59.2ZM59.2 115.8V107.8H51.2V115.8H59.2ZM72 115.8V123.8H80V115.8H72ZM72 103V95H64V103H72ZM110.4 103H118.4V95H110.4V103ZM110.4 115.8H102.4V123.8H110.4V115.8ZM123.2 115.8H131.2V107.8H123.2V115.8ZM123.2 141.4H115.2V149.4H123.2V141.4ZM20.8 218.2H12.8V226.2H20.8V218.2ZM20.8 192.6V184.6H12.8V192.6H20.8ZM72 192.6H80V184.6H72V192.6ZM72 218.2V226.2H80V218.2H72ZM136 141.4H128V167H136H144V141.4H136ZM136 167V159H97.6V167V175H136V167ZM97.6 167H105.6V141.4H97.6H89.6V167H97.6ZM97.6 141.4V133.4H84.8V141.4V149.4H97.6V141.4ZM84.8 141.4H76.8V167H84.8H92.8V141.4H84.8ZM84.8 167V159H72V167V175H84.8V167ZM72 167H64V179.8H72H80V167H72ZM72 179.8V171.8H20.8V179.8V187.8H72V179.8ZM20.8 179.8H28.8V167H20.8H12.8V179.8H20.8ZM20.8 167V159H8V167V175H20.8V167ZM8 167H16V115.8H8H0V167H8ZM8 115.8V123.8H33.6V115.8V107.8H8V115.8ZM33.6 115.8H25.6V154.2H33.6H41.6V115.8H33.6ZM33.6 154.2V162.2H59.2V154.2V146.2H33.6V154.2ZM59.2 154.2H67.2V115.8H59.2H51.2V154.2H59.2ZM59.2 115.8V123.8H72V115.8V107.8H59.2V115.8ZM72 115.8H80V103H72H64V115.8H72ZM72 103V111H110.4V103V95H72V103ZM110.4 103H102.4V115.8H110.4H118.4V103H110.4ZM110.4 115.8V123.8H123.2V115.8V107.8H110.4V115.8ZM123.2 115.8H115.2V141.4H123.2H131.2V115.8H123.2ZM123.2 141.4V149.4H136V141.4V133.4H123.2V141.4ZM20.8 218.2H28.8V192.6H20.8H12.8V218.2H20.8ZM20.8 192.6V200.6H72V192.6V184.6H20.8V192.6ZM72 192.6H64V218.2H72H80V192.6H72ZM72 218.2V210.2H20.8V218.2V226.2H72V218.2ZM123.25 167H115.25V175H123.25V167ZM123.25 141.4V133.4H115.25V141.4H123.25ZM161.65 141.4H169.65V133.4H161.65V141.4ZM161.65 167V175H169.65V167H161.65ZM123.25 167H131.25V141.4H123.25H115.25V167H123.25ZM123.25 141.4V149.4H161.65V141.4V133.4H123.25V141.4ZM161.65 141.4H153.65V167H161.65H169.65V141.4H161.65ZM161.65 167V159H123.25V167V175H161.65V167ZM148.875 167H140.875V175H148.875V167ZM148.875 141.4V133.4H140.875V141.4H148.875ZM187.275 141.4H195.275V133.4H187.275V141.4ZM187.275 167V175H195.275V167H187.275ZM148.875 167H156.875V141.4H148.875H140.875V167H148.875ZM148.875 141.4V149.4H187.275V141.4V133.4H148.875V141.4ZM187.275 141.4H179.275V167H187.275H195.275V141.4H187.275ZM187.275 167V159H148.875V167V175H187.275V167ZM174.5 167H166.5V175H174.5V167ZM174.5 141.4V133.4H166.5V141.4H174.5ZM212.9 141.4H220.9V133.4H212.9V141.4ZM212.9 167V175H220.9V167H212.9ZM174.5 167H182.5V141.4H174.5H166.5V167H174.5ZM174.5 141.4V149.4H212.9V141.4V133.4H174.5V141.4ZM212.9 141.4H204.9V167H212.9H220.9V141.4H212.9ZM212.9 167V159H174.5V167V175H212.9V167ZM225.725 90.2H217.725V98.2H225.725V90.2ZM225.725 64.6V56.6H217.725V64.6H225.725ZM251.325 64.6H259.325V56.6H251.325V64.6ZM251.325 90.2V98.2H259.325V90.2H251.325ZM200.125 141.4V133.4H192.125V141.4H200.125ZM225.725 141.4V149.4H233.725V141.4H225.725ZM225.725 103V95H217.725V103H225.725ZM251.325 103H259.325V95H251.325V103ZM251.325 154.2V162.2H259.325V154.2H251.325ZM238.525 154.2V146.2H230.525V154.2H238.525ZM238.525 167V175H246.525V167H238.525ZM200.125 167H192.125V175H200.125V167ZM225.725 90.2H233.725V64.6H225.725H217.725V90.2H225.725ZM225.725 64.6V72.6H251.325V64.6V56.6H225.725V64.6ZM251.325 64.6H243.325V90.2H251.325H259.325V64.6H251.325ZM251.325 90.2V82.2H225.725V90.2V98.2H251.325V90.2ZM200.125 141.4V149.4H225.725V141.4V133.4H200.125V141.4ZM225.725 141.4H233.725V103H225.725H217.725V141.4H225.725ZM225.725 103V111H251.325V103V95H225.725V103ZM251.325 103H243.325V154.2H251.325H259.325V103H251.325ZM251.325 154.2V146.2H238.525V154.2V162.2H251.325V154.2ZM238.525 154.2H230.525V167H238.525H246.525V154.2H238.525ZM238.525 167V159H200.125V167V175H238.525V167ZM200.125 167H208.125V141.4H200.125H192.125V167H200.125ZM302.525 115.8H310.525V107.8H302.525V115.8ZM302.525 192.6V200.6H310.525V192.6H302.525ZM289.725 192.6V184.6H281.725V192.6H289.725ZM289.725 205.4V213.4H297.725V205.4H289.725ZM264.125 205.4H256.125V213.4H264.125V205.4ZM264.125 179.8V171.8H256.125V179.8H264.125ZM276.925 179.8V187.8H284.925V179.8H276.925ZM276.925 115.8V107.8H268.925V115.8H276.925ZM302.525 115.8H294.525V192.6H302.525H310.525V115.8H302.525ZM302.525 192.6V184.6H289.725V192.6V200.6H302.525V192.6ZM289.725 192.6H281.725V205.4H289.725H297.725V192.6H289.725ZM289.725 205.4V197.4H264.125V205.4V213.4H289.725V205.4ZM264.125 205.4H272.125V179.8H264.125H256.125V205.4H264.125ZM264.125 179.8V187.8H276.925V179.8V171.8H264.125V179.8ZM276.925 179.8H284.925V115.8H276.925H268.925V179.8H276.925ZM276.925 115.8V123.8H302.525V115.8V107.8H276.925V115.8ZM328.175 51.8V43.8H320.175V51.8H328.175ZM353.775 51.8H361.775V43.8H353.775V51.8ZM353.775 77.4V85.4H361.775V77.4H353.775ZM328.175 77.4H320.175V85.4H328.175V77.4ZM379.375 115.8H387.375V107.8H379.375V115.8ZM379.375 141.4H371.375V149.4H379.375V141.4ZM392.175 141.4H400.175V133.4H392.175V141.4ZM392.175 167V175H400.175V167H392.175ZM315.375 167H307.375V175H315.375V167ZM315.375 141.4V133.4H307.375V141.4H315.375ZM353.775 141.4V149.4H361.775V141.4H353.775ZM353.775 115.8H361.775V107.8H353.775V115.8ZM328.175 115.8H320.175V123.8H328.175V115.8ZM328.175 90.2V82.2H320.175V90.2H328.175ZM366.575 90.2H374.575V82.2H366.575V90.2ZM366.575 115.8H358.575V123.8H366.575V115.8ZM328.175 51.8V59.8H353.775V51.8V43.8H328.175V51.8ZM353.775 51.8H345.775V77.4H353.775H361.775V51.8H353.775ZM353.775 77.4V69.4H328.175V77.4V85.4H353.775V77.4ZM328.175 77.4H336.175V51.8H328.175H320.175V77.4H328.175ZM379.375 115.8H371.375V141.4H379.375H387.375V115.8H379.375ZM379.375 141.4V149.4H392.175V141.4V133.4H379.375V141.4ZM392.175 141.4H384.175V167H392.175H400.175V141.4H392.175ZM392.175 167V159H315.375V167V175H392.175V167ZM315.375 167H323.375V141.4H315.375H307.375V167H315.375ZM315.375 141.4V149.4H353.775V141.4V133.4H315.375V141.4ZM353.775 141.4H361.775V115.8H353.775H345.775V141.4H353.775ZM353.775 115.8V107.8H328.175V115.8V123.8H353.775V115.8ZM328.175 115.8H336.175V90.2H328.175H320.175V115.8H328.175ZM328.175 90.2V98.2H366.575V90.2V82.2H328.175V90.2ZM366.575 90.2H358.575V115.8H366.575H374.575V90.2H366.575ZM366.575 115.8V123.8H379.375V115.8V107.8H366.575V115.8ZM456.175 103H464.175V95H456.175V103ZM456.175 128.6V136.6H464.175V128.6H456.175ZM430.575 128.6H422.575V136.6H430.575V128.6ZM430.575 115.8H438.575V107.8H430.575V115.8ZM417.775 115.8V107.8H409.775V115.8H417.775ZM417.775 141.4H409.775V149.4H417.775V141.4ZM443.375 141.4H451.375V133.4H443.375V141.4ZM443.375 167V175H451.375V167H443.375ZM379.375 167H371.375V175H379.375V167ZM379.375 141.4V133.4H371.375V141.4H379.375ZM392.175 141.4V149.4H400.175V141.4H392.175ZM392.175 103V95H384.175V103H392.175ZM404.975 103V111H412.975V103H404.975ZM404.975 90.2V82.2H396.975V90.2H404.975ZM443.375 90.2H451.375V82.2H443.375V90.2ZM443.375 103H435.375V111H443.375V103ZM456.175 103H448.175V128.6H456.175H464.175V103H456.175ZM456.175 128.6V120.6H430.575V128.6V136.6H456.175V128.6ZM430.575 128.6H438.575V115.8H430.575H422.575V128.6H430.575ZM430.575 115.8V107.8H417.775V115.8V123.8H430.575V115.8ZM417.775 115.8H409.775V141.4H417.775H425.775V115.8H417.775ZM417.775 141.4V149.4H443.375V141.4V133.4H417.775V141.4ZM443.375 141.4H435.375V167H443.375H451.375V141.4H443.375ZM443.375 167V159H379.375V167V175H443.375V167ZM379.375 167H387.375V141.4H379.375H371.375V167H379.375ZM379.375 141.4V149.4H392.175V141.4V133.4H379.375V141.4ZM392.175 141.4H400.175V103H392.175H384.175V141.4H392.175ZM392.175 103V111H404.975V103V95H392.175V103ZM404.975 103H412.975V90.2H404.975H396.975V103H404.975ZM404.975 90.2V98.2H443.375V90.2V82.2H404.975V90.2ZM443.375 90.2H435.375V103H443.375H451.375V90.2H443.375ZM443.375 103V111H456.175V103V95H443.375V103ZM456.2 39V31H448.2V39H456.2ZM469 39V47H477V39H469ZM469 13.4V5.39999H461V13.4H469ZM507.4 13.4H515.4V5.39999H507.4V13.4ZM507.4 39V47H515.4V39H507.4ZM494.6 39V31H486.6V39H494.6ZM494.6 51.8V59.8H502.6V51.8H494.6ZM456.2 51.8H448.2V59.8H456.2V51.8ZM494.6 167V175H502.6V167H494.6ZM469 167H461V175H469V167ZM469 64.6V56.6H461V64.6H469ZM494.6 64.6H502.6V56.6H494.6V64.6ZM456.2 39V47H469V39V31H456.2V39ZM469 39H477V13.4H469H461V39H469ZM469 13.4V21.4H507.4V13.4V5.39999H469V13.4ZM507.4 13.4H499.4V39H507.4H515.4V13.4H507.4ZM507.4 39V31H494.6V39V47H507.4V39ZM494.6 39H486.6V51.8H494.6H502.6V39H494.6ZM494.6 51.8V43.8H456.2V51.8V59.8H494.6V51.8ZM456.2 51.8H464.2V39H456.2H448.2V51.8H456.2ZM494.6 167V159H469V167V175H494.6V167ZM469 167H477V64.6H469H461V167H469ZM469 64.6V72.6H494.6V64.6V56.6H469V64.6ZM494.6 64.6H486.6V167H494.6H502.6V64.6H494.6Z" fill="black" mask="url(#path-2-outside-1_4923_50)"/>
</svg>
